<svg class="inlinline-block mx-auto" id="ec-bbl_logo_svg__Ebene_2" style="height:48px;margin-top:calc(0 - 24px);margin-bottom:calc(0 - 24px)" viewBox="0 0 576.76 312.41" xmlns="http://www.w3.org/2000/svg"><defs></defs><g id="ec-bbl_logo_svg__Ebene_1-2"><path class="ec-bbl_logo_svg__cls-1" d="M291.03 198.56c26.99-2.03 45.24-27.72 37.94-54.03-4.57-16.47-20.68-29.84-37.96-30.2l.09-81.28 57.94-33L517.94 0l2.24.61 56.36 32.35.22 245.94-.68 1.36-56.97 32.15-170.83-.07-57.08-32.45-.18-81.34ZM428.5 20.89c-37.78 3.35-56.57 48.82-33.45 78.75 23.33 30.21 71.85 23.09 84.83-12.76 12.67-34.99-14.65-69.24-51.37-65.99ZM381.37 70.8c-10.35-.99-21.31.61-23.56 12.45l-.06 147.64c.76 7.21 6.88 12.73 14.04 13.22h124.17c7.16-.49 13.27-6 14.04-13.22V84.01c-.42-5.7-4.91-10.85-10.28-12.51-4.28-1.32-8.91-.46-13.34-.7-.5 39.87-43.96 64.35-78.82 44.41-15.57-8.9-26.07-26.37-26.18-44.41ZM228.13 119.21l24.54 14.44c-17.3 26.91 1.3 63.03 33.04 64.89l-.08 81.27-56.6 32.31-171.42.29-48.25-27.63h74.7c35.83-.43 69.94-15.65 94-41.9h33.58v-49.22h-5.29c1.06-5.69 2.71-11.21 3.6-16.95 2.99-19.41 1.51-38.6-3.6-57.49h21.77ZM285.72 32.97v58.99h-74.08V70.81h-32.76c-22.44-25.34-54.75-40.78-88.71-42.73H9.36L57.38.21 227.7.05z"></path><path class="ec-bbl_logo_svg__cls-1" d="m0 32.97 84.88-.02c8.37.54 16.47 1.22 24.68 2.99 23.63 5.11 45.51 17.56 62.2 34.85l-97.68.41v42.71H0zM74.08 198.54v44.34h96.46c-20.89 22.15-50.79 34.76-81.18 36.63L0 279.49v-80.95zM86.69 119.21c-1.26 2.2-6.55 2.97-4.83 6.24 1.85 3.52 5.03-.47 7.15-1.69 1.4-.81 5.34-2.3 6.01-3.37.26-.41.16-1.19.22-1.19h10.58v74.44h-9.97c-.43 0-.8-1.66-1.3-2.06-.93-.74-3.79-1.73-5.13-2.5-2.03-1.16-5.36-4.91-7.4-2.35-2.37 2.97 3.61 5.02 5.08 6.91H0V119.2h86.69Zm-10.28 10.23c-2.04.32-6.49 8.11-7.02 10.09-.65 2.39.16 4.2 2.85 3.67 1.61-.32 2.18-3.28 3-4.74 1.08-1.92 4.53-5.82 3.53-7.87-.32-.66-1.61-1.27-2.35-1.15Zm-5.69 19.97c-1.16-1.16-4.03-.55-4.37 1.34-.5 2.75-.41 8.16.01 10.95.46 3.03 4.43 2.97 4.85-.01.21-1.54-.42-4.87-.41-6.9 0-1.47 1.04-4.26-.08-5.38m2.44 20.35c-1.73-1.66-4.45.07-3.88 2.85.3 1.46 4.33 8.61 5.44 9.62 2.02 1.82 4.73.51 4.17-2.11-.24-1.11-2.18-3.26-2.85-4.5-.59-1.09-2.39-5.39-2.88-5.86M200.66 119.21c7.68 24.08 7.62 50.36 0 74.44h-71.63c3.76-3 7.7-5.47 10.98-9.16 15.92-17.92 13.64-45.6-4.68-60.79l-6.3-4.49zM291.01 193.25v-74.04c17.39 1.45 31.4 14.38 34.08 31.64 3.27 21.12-12.75 41.22-34.08 42.4"></path><path class="ec-bbl_logo_svg__cls-1" d="M111.11 193.25v-74.04c13.9 1.14 26.19 9.94 31.53 22.79 9.75 23.48-6.33 49.56-31.53 51.24ZM285.72 193.25c-27.84-1.4-44.29-34.2-28.29-57.35l28.29 16.47zM449.75 203.41c7.04 2.25 7 10.32 3.19 15.6-2.14 2.95-4.94 4.58-8.47 5.36-9.52 2.12-20.39.48-30.12 1.01l9.4-42.67c9.62.81 35.21-4.62 32.82 12.26-.6 4.26-3.6 6.19-6.81 8.44Zm-19.54-4.06H441c.64 0 3.24-.96 3.85-1.44 2.85-2.22 2.33-6.74-1.79-7.12-3.55-.32-7.6.28-11.21.02l-1.63 8.54Zm-4.07 17.9h14.45c3.2 0 6.96-6.01 2.63-8.73-2.66-1.66-11.32-.04-14.79-.65l-2.28 9.38ZM409.05 202.61c-.6.65 1.71 1.57 2.23 2.04 7.46 6.8.99 17.58-7.59 19.65-6.58 1.59-22.16 1.77-29.05 1.11-.45-.04-.91 0-1.22-.42l9.2-42.29c8.16.94 25.27-2.85 30.9 4.26 4.14 5.22 2.05 13.62-4.46 15.66Zm-19.95-3.26h10.79c.24 0 2.42-.67 2.81-.85 3.59-1.63 4.04-7.03.02-7.67-1.21-.19-11.13-.19-11.6.15l-2.01 8.37Zm-4.07 17.9h14.45c3.05 0 6.47-5.52 3.44-8.32-2.39-2.2-12.15-.47-15.61-1.06l-2.27 9.38ZM474.57 182.67l-7.32 34.58h22.38l-2.24 8.13h-31.95l9.57-42.71zM408.64 150.13l2.03-10.98-2.79.05-.47 1.57c-5.44-5.17-12.05.29-11.97 6.71.07 5.41 5.52 8.31 9.53 4.27.73 4.54 8.43-.04 10.39-2.03.26 1.87-1.67 4.53-3.04 5.91-5.73 5.78-16.02 4.86-20.3-2.11-7.5-12.23 6.27-25.8 18.21-18.2 6.88 4.38 7.53 13.51-1.59 14.81M473.35 155.42l-4.07 21.15h-4.88l.4-2.04c-5.68 5.41-11.66 1.25-10.48-6.21 1-6.32 7.8-9.03 12.52-4.37l1.41-8.15 5.1-.39Zm-8.64 10.67c-3.14-3.15-7.65 4.95-3.96 6.61 3.31 1.49 6.24-4.33 3.96-6.61M437.94 147.28l4.48-8.34c.55-.34 3.87-.31 4.69-.2.57.07.7-.22.6.6-3.91 5.33-6.58 12.42-10.41 17.66-2.54 3.48-4.87 4.1-9.12 3.29l.82-4.07c2.52 1.35 4.25-.87 5.12-3.04l-3.09-14.45 5.11.39c.69 2.25.56 4.87 1.03 7.11.1.49.19.97.78 1.05ZM427.32 155.86l-.37 4.03c-4.2-1.13-8.21-1.24-10.92 2.71-4.79 6.99.48 12.77 8.07 9.49l-.88 4.41c-5.77 1.45-13.39-.15-14.18-7.05-1.23-10.78 8.62-16.3 18.27-13.59ZM442.83 170.87c.29 3.93 5.63 2.38 8.14 1.63-.4 1.86.14 3.26-1.94 3.95-6.94 2.29-13.49-2.31-10.59-9.77 3.32-8.53 18.45-5.8 13.96 4.19h-9.56Zm6.1-3.25c-.37-3.6-4.87-3.05-5.7 0z"></path><path class="ec-bbl_logo_svg__cls-1" d="M388.69 147.69h-10.58c.7 3.74 5.92 2.73 8.54 1.63l-.46 3.61c-4.06 1.56-10.55 1.6-12.35-3.21-4.45-11.9 17.63-16.71 14.84-2.02Zm-4.07-2.85c-.26-4.24-4.98-3.36-6.11 0zM488.41 161.92h3.26l-.47 3.61-3.56.1c-.23 2.98-3.66 9.34 1.99 7.69l-.4 2.98c-9.38 2.95-8.4-4.23-6.93-10.71h-2.44l1.07-3.61 2.58-.07c-.26-4.12 2.76-3.24 5.52-4.45zM429.39 142.81c-1.29-.42-6.1-1.74-6.5.21-.29 1.4 5.08 2.08 5.89 3.86.71 1.57.12 4.14-1.21 5.29-2.87 2.5-7.75 1.54-11.2 1.21l.8-3.5c.62-.47 5.76 1.38 6.94-.37.4-2.05-6.89-1.54-6.01-6.81s11.69-4.5 12.09-2.92l-.78 3.02ZM438.31 161.97l-.78 4.44c-7.13-2.4-5.97 5.73-7.71 9.99l-4.91.18 2.87-14.62 4.46-.02v2.04c1.83-1.66 3.45-3.24 6.07-1.99ZM479.05 161.92l-2.63 14.26c-.58.83-3.98.2-5.11.39l2.8-14.41 4.93-.24ZM403.2 142.11c4.91-.26 3.32 9.09-2 7.93-3.65-.79-2.07-7.72 2-7.93M479.82 159.85l-5.25.04.86-4.03 4.86.15zM422.88 51.07c.6 7.11 4.11 18.07 12.42 18.91s18.13-.95 26.34.11c.84.11 2.11.43 2.79.98.87 1.34.25 7.37-.3 9.02-1.06 3.19-3.68 2.48-6.06 3.3-7.58 2.61-13.41 10.46-19.76 15.24s-17.59 12.2-25.3 11.11c-3.79-.53-10.11-6.01-12.73-8.84-7.74-8.37-11.88-19.3-12.38-30.67.41-1.42 4.03-.27 5.04-.24 3.86.13 12.6-1 15.24 1.45 4.26 3.94 5.59 14.29 7.07 19.78.96 3.55 2.2 11.52 6.39 11.71.35-7.57-1.17-15.06-1.62-22.58-.61-10.21-.44-21.94.86-32.08.23-1.82 1.02-7.46 1.78-8.8.11-.19.52-.52.61-.4.41.87-.4 2.2-.4 2.64 0 2.98-.25 6.46 0 9.36Z"></path><path class="ec-bbl_logo_svg__cls-1" d="M388.29 68.36c-.17-13.04 6.55-25.99 16.5-34.16 9.57-7.86 15.53-5.92 25.55.07 8.92 5.32 18.54 16.77 27.04 20.16 3.8 1.51 5.9.32 6.92 5.29.49 2.41 1.67 8.43-1.7 8.66-8.68-.62-18.34.76-26.9 0-9.46-.84-10.57-15.01-10.77-22.18-.02-.79-.42-1.58-.44-2.45-.02-1.1 1.71-9.11-1.6-7.34-2.06 1.1-3.69 11.39-4.02 13.9-2.2 16.81-.47 34.27 1.57 51-1.06.3-1.18-1.69-1.42-2.44-2.28-7.16-4.38-23.82-9.76-28.48-.64-.56-3.02-2.02-3.67-2.02h-17.3ZM462.68 85.14c1.29 1.2-2.31 10.56-3.1 12.38-3.78 8.78-9.49 16.17-19.46 17.57-8.97 1.27-17.97-.47-26.2-4.02l7-1.33c11.49-3.34 19.3-10.94 27.99-18.4 2.33-2 10.71-9.04 13.76-6.2Z"></path><path class="ec-bbl_logo_svg__cls-1" d="M462.26 53.21c-2.54 2.2-9.44-3.19-11.49-4.79-9.81-7.69-18.77-17.19-31.46-20.22l-4.17-.51c8.29-3.28 18.46-4.97 27.29-3.08 9.56 2.05 16.67 13.94 19.22 22.69.4 1.37 1.78 4.88.6 5.91ZM449.34 112.7c5.2-4.28 8.94-9.69 11.59-15.87 1.07-2.49 3.1-10.62 4.27-11.9.84-.92 3.4-.95 4.49-.49 2.86 1.2 2.53 7.87 1.86 10.39-1.83 6.87-15.47 15.92-22.21 17.87M469.89 68.77c-.33-.04-2.46-.51-2.65-.61-1.72-.83-1.33-7.86-2.02-9.75.6-4.22 4.65-1.14 6.58-4.82 1.73-3.3.01-6.32.12-9.64 3.73 5.97 6.79 13.04 7.53 20.14.09.89.35 3.05.33 3.76-.01.5-.15.63-.53.92-3-.24-6.42.32-9.36 0"></path><path class="ec-bbl_logo_svg__cls-1" d="M472.94 93.99c-.73.09-.4-.92-.35-1.37.3-3.14 1.39-7.97-2.11-9.78-1.4-.73-4.25-.26-4.67-1.83-.47-1.71-.09-8.78 1.02-10.03.53-.59 4.72-.95 5.91-1.01 2.13-.11 4.33.05 6.47.08l.69.95c-.59 8.26-2.9 15.81-6.94 22.98ZM448.93 26.47c1.8.43 3.73 1.32 5.38 2.15 5.08 2.53 14.67 9.43 16.49 14.84 1.27 3.79 1.8 11.51-4.13 10.65-3.1-.45-3.87-7.03-4.92-9.74-1.65-4.26-4.26-9.2-7.31-12.62-1.71-1.92-3.88-3.3-5.5-5.28Z"></path></g></svg>