<svg width="111" height="194" viewBox="0 0 111 194" fill="none" xmlns="http://www.w3.org/2000/svg" xmlns:xlink="http://www.w3.org/1999/xlink">
  <mask id="mask0_298_3491" style="mask-type:luminance" maskUnits="userSpaceOnUse" x="4" y="22" width="104" height="114">
    <path d="M55.7498 132.82C38.4498 132.82 13.5898 135.15 4.33984 135.94L4.52985 43.4697C17.8298 30.7197 35.8698 22.8896 55.7498 22.8896C75.6298 22.8896 93.6699 30.7196 107.16 43.6496L106.97 135.66C97.3998 134.87 72.5598 132.82 55.7498 132.82Z" fill="white"></path>
  </mask>
  <g mask="url(#mask0_298_3491)">
    <mask id="mask1_298_3491" style="mask-type:luminance" maskUnits="userSpaceOnUse" x="4" y="20" width="104" height="116">
      <path d="M107.16 20.4893H4.33984V135.939H107.16V20.4893Z" fill="white"></path>
    </mask>
    <g mask="url(#mask1_298_3491)">
      <mask id="mask2_298_3491" style="mask-type:luminance" maskUnits="userSpaceOnUse" x="4" y="20" width="104" height="116">
        <path d="M107.16 20.4893H4.33984V135.939H107.16V20.4893Z" fill="white"></path>
      </mask>
      <g mask="url(#mask2_298_3491)">
        <rect x="4.24023" y="20.4395" width="102.96" height="115.68" fill="url(#pattern0_298_3491)"></rect>
      </g>
    </g>
  </g>
  <path fill-rule="evenodd" clip-rule="evenodd" d="M107.17 139.13L107.04 169.23C93.7402 181.98 75.7002 189.81 55.8202 189.81C35.9402 189.81 17.9002 181.98 4.41016 169.05V139.39C13.7102 138.59 38.4902 136.28 55.7502 136.28C73.0102 136.28 97.7502 138.36 107.17 139.14V139.13Z" fill="#2B2849"></path>
  <path d="M55.8203 19.4404C34.9603 19.4404 15.6803 27.5704 0.660278 42.3804L0.530273 171.08C15.3203 185.66 34.7403 193.45 55.6103 193.45C76.4803 193.45 95.8803 185.66 110.67 171.08L110.75 42.1504C95.9603 27.5704 76.6803 19.4404 55.8203 19.4404Z" fill="#DAD4AB"></path>
  <path fill-rule="evenodd" clip-rule="evenodd" d="M107.17 139.13L107.04 169.23C93.7402 181.98 75.7002 189.81 55.8202 189.81C35.9402 189.81 17.9002 181.98 4.41016 169.05V139.39C13.7102 138.59 38.4902 136.28 55.7502 136.28C73.0102 136.28 97.7502 138.36 107.17 139.14V139.13Z" fill="#2B2849"></path>
  <path d="M77.95 165.75C72.86 165.75 72.21 162.15 72.21 159.02C72.21 155.89 72.86 152.29 77.95 152.29C83.04 152.29 83.69 155.89 83.69 159.02C83.69 162.15 83.04 165.75 77.95 165.75ZM77.95 155.09C75.84 155.09 75.48 156.3 75.48 159.02C75.48 161.74 75.84 162.95 77.95 162.95C80.06 162.95 80.42 161.74 80.42 159.02C80.42 156.3 80.06 155.09 77.95 155.09Z" fill="white"></path>
  <path d="M48.2997 152.28C47.2297 152.28 46.1397 152.54 45.1397 153.04C44.9097 152.31 44.2297 151.77 43.4197 151.77H41.9697V165.45H45.2197V155.74C45.7597 155.46 46.5897 155.12 47.8297 155.12C49.0697 155.12 49.5497 155.6 49.5497 156.72V165.46H52.7997V156.47C52.7997 153.7 51.2897 152.29 48.2997 152.29V152.28Z" fill="white"></path>
  <path d="M65.7099 152.28C64.5399 152.28 63.4999 152.52 62.5399 153.01C62.3099 152.29 61.6299 151.77 60.8299 151.77H59.3799V172.7H62.6299V164.95C63.5599 165.46 64.6599 165.74 65.7199 165.74C69.2099 165.74 70.9099 163.54 70.9099 159.01C70.9099 154.48 69.2099 152.28 65.7199 152.28H65.7099ZM65.0599 162.92C63.8699 162.92 63.0599 162.54 62.6199 162.3V155.74C63.0599 155.5 63.8699 155.12 65.0599 155.12C67.1999 155.12 67.6199 156.61 67.6199 159.02C67.6199 161.43 67.1899 162.92 65.0599 162.92Z" fill="white"></path>
  <path d="M57.71 165.45V151.77H54.46V163.65C54.46 164.64 55.27 165.45 56.26 165.45H57.71Z" fill="white"></path>
  <path d="M56.09 150.69C57.22 150.69 58.14 149.77 58.14 148.64C58.14 147.51 57.22 146.59 56.09 146.59C54.96 146.59 54.04 147.51 54.04 148.64C54.04 149.77 54.96 150.69 56.09 150.69Z" fill="white"></path>
  <path d="M85.1494 144.8V163.65C85.1494 164.64 85.9594 165.45 86.9494 165.45H88.3994V146.6C88.3994 145.61 87.5894 144.81 86.5994 144.81H85.1494V144.8Z" fill="white"></path>
  <path d="M38.8503 144.8C37.8603 144.8 37.0502 145.61 37.0502 146.6V159.11C37.0502 160.44 37.0503 162.24 35.2603 163.84C32.8103 166.02 29.5802 164.95 29.4902 164.92C30.9602 165.65 32.5503 165.75 33.3203 165.75C34.9603 165.75 40.3002 165.29 40.3002 159.37V144.82H38.8503V144.8Z" fill="white"></path>
  <path d="M33.3199 162.74C30.8099 162.74 29.5898 161.55 29.5898 159.11V146.6C29.5898 145.61 28.7799 144.8 27.7899 144.8H26.3398V146.6V159.36C26.3398 161.88 27.3098 163.42 28.5498 164.34C29.3398 164.53 34.2498 165.54 36.3998 161.53C35.7998 162.34 34.7799 162.74 33.3199 162.74Z" fill="white"></path>
  <path fill-rule="evenodd" clip-rule="evenodd" d="M56.2404 171.45V172.71H29.4904C25.9004 172.71 22.1904 172.14 20.6904 171.54V168.93C21.8204 169.73 24.4504 171.46 30.5804 171.46H56.2404V171.45Z" fill="#E20613"></path>
  <path fill-rule="evenodd" clip-rule="evenodd" d="M33.5604 168.93H56.2404V170.18H31.9204C27.1604 170.18 22.2704 167.31 19.6104 163.17V158C19.8304 158.61 22.7904 168.93 33.5604 168.93Z" fill="#009540"></path>
  <path d="M31.92 170.19C27.29 170.17 22.69 168.93 18.54 163.17V166.08C22.69 170.1 25.99 171.27 30.58 171.45H56.24V170.19H31.92Z" fill="white"></path>
  <path d="M88.3995 171.45H65.7695V172.71H88.3995V171.45Z" fill="#E20613"></path>
  <path d="M88.3995 168.93H65.7695V170.19H88.3995V168.93Z" fill="#009540"></path>
  <path d="M88.3995 170.189H65.7695V171.449H88.3995V170.189Z" fill="white"></path>
  <path d="M55.1098 132.33C76.1298 132.33 99.8398 134.53 106.97 135.25L107.16 43.6496C93.6699 30.7196 75.6198 22.8896 55.7498 22.8896C35.8798 22.8896 17.8298 30.7197 4.52985 43.4697L4.33984 135.68C11.4298 134.84 34.5598 132.33 55.1098 132.33Z" fill="#E20613"></path>
  <mask id="mask3_298_3491" style="mask-type:luminance" maskUnits="userSpaceOnUse" x="4" y="22" width="104" height="114">
    <path d="M55.1098 132.33C76.1298 132.33 99.8398 134.53 106.97 135.25L107.16 43.6496C93.6699 30.7196 75.6198 22.8896 55.7498 22.8896C35.8798 22.8896 17.8298 30.7197 4.52985 43.4697L4.33984 135.68C11.4298 134.84 34.5598 132.33 55.1098 132.33Z" fill="white"></path>
  </mask>
  <g mask="url(#mask3_298_3491)">
    <mask id="mask4_298_3491" style="mask-type:luminance" maskUnits="userSpaceOnUse" x="1" y="20" width="107" height="118">
      <path d="M107.15 20.4893H1.79004V137.929H107.15V20.4893Z" fill="white"></path>
    </mask>
    <g mask="url(#mask4_298_3491)">
      <mask id="mask5_298_3491" style="mask-type:luminance" maskUnits="userSpaceOnUse" x="1" y="20" width="107" height="118">
        <path d="M107.15 20.4893H1.79004V137.929H107.15V20.4893Z" fill="white"></path>
      </mask>
      <g mask="url(#mask5_298_3491)">
        <rect x="1.59961" y="20.4395" width="105.6" height="117.6" fill="url(#pattern1_298_3491)"></rect>
      </g>
    </g>
  </g>
  <path d="M40.9304 47.7599L41.0004 47.71L40.8604 47.75L40.9304 47.7599Z" fill="white"></path>
  <path d="M32.5703 121.9C32.9203 122.13 33.3003 122.31 33.7203 122.43C34.1403 122.55 34.5403 122.61 34.9303 122.61C35.3503 122.61 35.7103 122.54 36.0003 122.39C36.2903 122.24 36.4303 122.02 36.4303 121.72C36.4303 121.47 36.3203 121.28 36.1103 121.15C35.9003 121.02 35.6303 120.9 35.3203 120.8C35.0003 120.7 34.6603 120.6 34.3003 120.5C33.9303 120.4 33.5903 120.25 33.2803 120.06C32.9603 119.87 32.7003 119.62 32.4903 119.32C32.2803 119.01 32.1703 118.6 32.1703 118.09C32.1703 117.66 32.2603 117.29 32.4503 116.98C32.6303 116.67 32.8803 116.41 33.1803 116.2C33.4803 115.99 33.8203 115.84 34.2103 115.74C34.6003 115.64 35.0003 115.59 35.4103 115.59C35.8903 115.59 36.3603 115.65 36.8203 115.78C37.2803 115.9 37.6903 116.09 38.0503 116.34L37.5003 117.89C37.1703 117.65 36.8203 117.47 36.4403 117.36C36.0603 117.25 35.7103 117.19 35.3803 117.19C35.0103 117.19 34.7003 117.26 34.4603 117.39C34.2103 117.52 34.0903 117.72 34.0903 117.99C34.0903 118.26 34.2003 118.47 34.4103 118.62C34.6203 118.77 34.8903 118.89 35.2003 118.99C35.5203 119.09 35.8603 119.19 36.2203 119.29C36.5903 119.39 36.9303 119.53 37.2403 119.7C37.5503 119.87 37.8203 120.11 38.0303 120.4C38.2403 120.69 38.3503 121.08 38.3503 121.56C38.3503 122.04 38.2503 122.43 38.0603 122.77C37.8703 123.1 37.6103 123.38 37.2903 123.59C36.9703 123.8 36.6003 123.96 36.1903 124.06C35.7803 124.16 35.3503 124.21 34.9003 124.21C34.3703 124.21 33.8603 124.15 33.3503 124.02C32.8503 123.89 32.4103 123.7 32.0303 123.46L32.5803 121.91L32.5703 121.9Z" fill="#DAD4AB"></path>
  <path d="M41.8001 122.46H46.4802V124.06H39.9102V115.72H46.4802V117.32H41.8001V118.99H45.9102V120.6H41.8001V122.46Z" fill="#DAD4AB"></path>
  <path d="M50.1205 117.32V119.44H51.8105C52.4305 119.44 52.8605 119.34 53.1005 119.15C53.3405 118.96 53.4604 118.7 53.4604 118.39C53.4604 118.04 53.3405 117.77 53.1005 117.59C52.8605 117.41 52.4305 117.32 51.8105 117.32H50.1205ZM55.3604 118.39C55.3604 118.92 55.2105 119.41 54.9005 119.86C54.5905 120.31 54.1005 120.64 53.4105 120.84L55.7505 124.06H53.5804L51.4105 121.04H50.1205V124.06H48.2305V115.72H51.8205C52.4505 115.72 52.9905 115.78 53.4405 115.91C53.8905 116.04 54.2605 116.22 54.5405 116.45C54.8205 116.68 55.0305 116.96 55.1605 117.29C55.2905 117.62 55.3604 117.99 55.3604 118.39Z" fill="#DAD4AB"></path>
  <path d="M59.2504 115.72H57.3604V124.06H59.2504V115.72Z" fill="#DAD4AB"></path>
  <path d="M63.2904 122.46H67.9704V124.06H61.4004V115.72H67.9704V117.32H63.2904V118.99H67.4004V120.6H63.2904V122.46Z" fill="#DAD4AB"></path>
  <path d="M75.47 120.81H77.9L76.69 117.88L75.48 120.81H75.47ZM78.56 122.42H74.82L74.14 124.06H72.21L75.73 115.72H77.66L81.18 124.06H79.25L78.57 122.42H78.56Z" fill="#DAD4AB"></path>
  <mask id="mask6_298_3491" style="mask-type:luminance" maskUnits="userSpaceOnUse" x="18" y="79" width="80" height="29">
    <path d="M25.03 79.6602V101.55H39.56V107.22H18.25V79.6702H25.03V79.6602ZM60.12 80.2102C61.53 80.5802 62.7 81.0902 63.61 81.7502C64.52 82.4102 65.18 83.2201 65.59 84.1801C65.99 85.1301 66.19 86.1602 66.19 87.2702C66.19 88.6102 65.9 89.7501 65.31 90.7001C64.78 91.5501 63.94 92.2902 62.81 92.9202C64.25 93.5902 65.32 94.3902 66.01 95.3302C66.76 96.3602 67.13 97.5402 67.13 98.8602C67.13 99.9502 66.89 101 66.41 102C65.92 103.01 65.2 103.89 64.23 104.66C63.26 105.43 62.05 106.05 60.6 106.52C59.14 106.99 57.43 107.22 55.47 107.22H43.3V79.6702H55C56.99 79.6702 58.69 79.8502 60.11 80.2202L60.12 80.2102ZM50.08 90.5002H55C56.71 90.5002 57.82 90.2201 58.4 89.7301C59.01 89.2201 59.31 88.6002 59.31 87.8602C59.31 87.1202 59.01 86.5302 58.39 86.0602C57.79 85.6002 56.68 85.3401 55 85.3401H50.08V90.5101V90.5002ZM50.08 101.55H55.47C57.34 101.55 58.57 101.27 59.24 100.77C59.91 100.26 60.25 99.5801 60.25 98.7001C60.25 97.8801 59.92 97.1901 59.25 96.6201C58.6 96.0701 57.37 95.7601 55.47 95.7601H50.08V101.56V101.55ZM76.47 101.88L74.21 107.22H67.25L79.14 79.6702H85.91L97.8 107.22H90.84L88.59 101.88H76.48H76.47ZM86.18 96.2102L82.5 87.5502L78.82 96.2102H86.18Z" fill="white"></path>
  </mask>
  <g mask="url(#mask6_298_3491)">
    <mask id="mask7_298_3491" style="mask-type:luminance" maskUnits="userSpaceOnUse" x="11" y="79" width="87" height="29">
      <path d="M97.7902 79.6602H11.9102V107.21H97.7902V79.6602Z" fill="white"></path>
    </mask>
    <g mask="url(#mask7_298_3491)">
      <mask id="mask8_298_3491" style="mask-type:luminance" maskUnits="userSpaceOnUse" x="11" y="79" width="87" height="29">
        <path d="M97.7902 79.6602H11.9102V107.21H97.7902V79.6602Z" fill="white"></path>
      </mask>
      <g mask="url(#mask8_298_3491)">
        <rect x="11.6797" y="79.4805" width="86.16" height="27.84" fill="url(#pattern2_298_3491)"></rect>
      </g>
    </g>
  </g>
  <mask id="mask9_298_3491" style="mask-type:luminance" maskUnits="userSpaceOnUse" x="15" y="53" width="74" height="18">
    <path d="M74.2199 53.3105C75.1799 53.6905 76.0999 54.0505 76.9499 54.4005C82.4799 56.6605 88.6499 60.8106 88.2499 64.3306L88.0399 64.9906C86.2699 68.0106 82.0799 69.5506 72.6699 70.4106C70.6599 70.5406 68.6299 70.6006 66.5899 70.6006C48.4199 70.6006 31.4699 65.4205 17.1199 56.4505C17.0099 56.3805 15.6299 55.5005 15.6299 55.5005C15.6299 55.5005 15.8099 55.5206 15.8499 55.5206C33.1399 57.0006 58.1199 55.9905 74.2299 53.3105H74.2199Z" fill="white"></path>
  </mask>
  <g mask="url(#mask9_298_3491)">
    <mask id="mask10_298_3491" style="mask-type:luminance" maskUnits="userSpaceOnUse" x="10" y="53" width="79" height="18">
      <path d="M88.6502 53.3105H10.9902V70.6006H88.6502V53.3105Z" fill="white"></path>
    </mask>
    <g mask="url(#mask10_298_3491)">
      <mask id="mask11_298_3491" style="mask-type:luminance" maskUnits="userSpaceOnUse" x="10" y="53" width="79" height="18">
        <path d="M88.6502 53.3105H10.9902V70.6006H88.6502V53.3105Z" fill="white"></path>
      </mask>
      <g mask="url(#mask11_298_3491)">
        <rect x="10.96" y="53.0801" width="77.76" height="17.76" fill="url(#pattern3_298_3491)"></rect>
      </g>
    </g>
  </g>
  <mask id="mask12_298_3491" style="mask-type:luminance" maskUnits="userSpaceOnUse" x="15" y="53" width="74" height="18">
    <path d="M74.2199 53.3105C75.1799 53.6905 76.0999 54.0505 76.9499 54.4005C82.4799 56.6605 88.6499 60.8106 88.2499 64.3306L88.0399 64.9906C86.2699 68.0106 82.0799 69.5506 72.6699 70.4106C70.6599 70.5406 68.6299 70.6006 66.5899 70.6006C48.4199 70.6006 31.4699 65.4205 17.1199 56.4505C17.0099 56.3805 15.6299 55.5005 15.6299 55.5005C15.6299 55.5005 15.8099 55.5206 15.8499 55.5206C33.1399 57.0006 58.1199 55.9905 74.2299 53.3105H74.2199Z" fill="white"></path>
  </mask>
  <g mask="url(#mask12_298_3491)">
    <path d="M32.2001 48.8404C31.6401 38.3304 40.1001 29.3504 51.0901 28.7804C62.0801 28.2104 71.4401 36.2704 71.9901 46.7804C72.5501 57.2904 64.0901 66.2704 53.1001 66.8404C42.1101 67.4104 32.7501 59.3504 32.2001 48.8404Z" fill="#9B9561"></path>
  </g>
  <mask id="mask13_298_3491" style="mask-type:luminance" maskUnits="userSpaceOnUse" x="21" y="0" width="50" height="49">
    <path d="M21.6904 24.5201C21.6904 11.0201 32.6304 0.0800781 46.1304 0.0800781C59.6304 0.0800781 70.5704 11.0201 70.5704 24.5201C70.5704 31.0701 68.0004 37.0101 63.8104 41.4001L41.2504 40.5301C41.2504 40.5301 48.5304 43.2401 56.9104 46.4601C53.6604 48.0601 50.0004 48.9601 46.1304 48.9601C32.6304 48.9601 21.6904 38.0201 21.6904 24.5201Z" fill="white"></path>
  </mask>
  <g mask="url(#mask13_298_3491)">
    <mask id="mask14_298_3491" style="mask-type:luminance" maskUnits="userSpaceOnUse" x="21" y="0" width="50" height="49">
      <path d="M70.5804 0.0800781H21.6904V48.9701H70.5804V0.0800781Z" fill="white"></path>
    </mask>
    <g mask="url(#mask14_298_3491)">
      <mask id="mask15_298_3491" style="mask-type:luminance" maskUnits="userSpaceOnUse" x="21" y="0" width="50" height="49">
        <path d="M70.5804 0.0800781H21.6904V48.9701H70.5804V0.0800781Z" fill="white"></path>
      </mask>
      <g mask="url(#mask15_298_3491)">
        <rect x="21.5205" y="0.0400391" width="49.2" height="48.96" fill="url(#pattern4_298_3491)"></rect>
      </g>
    </g>
  </g>
  <mask id="mask16_298_3491" style="mask-type:luminance" maskUnits="userSpaceOnUse" x="29" y="3" width="39" height="43">
    <path d="M63.5403 12.6399C70.1903 22.1299 67.8803 35.2099 58.3903 41.8599C51.9703 46.3599 43.9103 46.7499 37.3003 43.5999L36.8203 43.3599C42.6403 38.5899 45.6403 35.4199 50.0903 29.3499C55.3103 22.2299 57.7203 17.6499 60.6503 9.31992L61.0303 9.65993C61.9403 10.5599 62.7903 11.5499 63.5503 12.6299L63.5403 12.6399ZM34.0403 41.5399C28.3203 36.2199 27.9303 26.8099 31.5403 19.8799C36.9103 9.55993 52.3603 5.94992 58.9603 8.18992C53.7103 15.3099 50.7403 19.3099 45.4403 26.3999C41.0103 32.3199 38.5103 35.6499 34.0403 41.5399ZM35.1103 10.3299C40.0603 7.81992 46.5903 5.73993 53.0303 4.79993C48.8803 3.32993 38.6503 1.29992 31.5003 9.88992C30.3303 11.2899 28.6803 14.9399 29.4703 14.0199C31.0503 12.6499 32.9203 11.4399 35.1103 10.3299Z" fill="white"></path>
  </mask>
  <g mask="url(#mask16_298_3491)">
    <mask id="mask17_298_3491" style="mask-type:luminance" maskUnits="userSpaceOnUse" x="27" y="1" width="44" height="46">
      <path d="M70.1907 1.2998H27.9307V46.7498H70.1907V1.2998Z" fill="white"></path>
    </mask>
    <g mask="url(#mask17_298_3491)">
      <mask id="mask18_298_3491" style="mask-type:luminance" maskUnits="userSpaceOnUse" x="27" y="1" width="44" height="46">
        <path d="M70.1907 1.2998H27.9307V46.7498H70.1907V1.2998Z" fill="white"></path>
      </mask>
      <g mask="url(#mask18_298_3491)">
        <rect x="27.7607" y="1.24023" width="42.48" height="45.6" fill="url(#pattern5_298_3491)"></rect>
      </g>
    </g>
  </g>
  <mask id="mask19_298_3491" style="mask-type:luminance" maskUnits="userSpaceOnUse" x="41" y="38" width="56" height="25">
    <path d="M96.3703 43.6504C96.6603 43.9104 96.8703 44.1804 97.0003 44.4604L96.9803 44.8004L92.9503 62.5004C93.3503 59.0004 87.1703 54.8604 81.6503 52.5904C80.8003 52.2404 79.8803 51.8804 78.9203 51.5004C69.1103 47.6704 49.7103 42.1304 41.3703 40.5404H41.2803L41.3903 40.4804C44.7103 40.0704 58.5603 38.3104 67.4803 38.4904C83.2303 38.8204 92.9103 40.5504 96.3703 43.6304V43.6504Z" fill="white"></path>
  </mask>
  <g mask="url(#mask19_298_3491)">
    <mask id="mask20_298_3491" style="mask-type:luminance" maskUnits="userSpaceOnUse" x="41" y="38" width="56" height="25">
      <path d="M96.9903 38.3203H41.2803V62.5003H96.9903V38.3203Z" fill="white"></path>
    </mask>
    <g mask="url(#mask20_298_3491)">
      <mask id="mask21_298_3491" style="mask-type:luminance" maskUnits="userSpaceOnUse" x="41" y="38" width="56" height="25">
        <path d="M96.9903 38.3203H41.2803V62.5003H96.9903V38.3203Z" fill="white"></path>
      </mask>
      <g mask="url(#mask21_298_3491)">
        <rect x="41.2002" y="38.2002" width="55.92" height="24.48" fill="url(#pattern6_298_3491)"></rect>
      </g>
    </g>
  </g>
  <mask id="mask22_298_3491" style="mask-type:luminance" maskUnits="userSpaceOnUse" x="41" y="38" width="56" height="25">
    <path d="M96.3703 43.6504C96.6603 43.9104 96.8703 44.1804 97.0003 44.4604L96.9803 44.8004L92.9503 62.5004C93.3503 59.0004 87.1703 54.8604 81.6503 52.5904C80.8003 52.2404 79.8803 51.8804 78.9203 51.5004C69.1103 47.6704 49.7103 42.1304 41.3703 40.5404H41.2803L41.3903 40.4804C44.7103 40.0704 58.5603 38.3104 67.4803 38.4904C83.2303 38.8204 92.9103 40.5504 96.3703 43.6304V43.6504Z" fill="white"></path>
  </mask>
  <g mask="url(#mask22_298_3491)">
    <mask id="mask23_298_3491" style="mask-type:luminance" maskUnits="userSpaceOnUse" x="83" y="30" width="21" height="36">
      <path d="M90.9698 30.6807L103.65 31.5707L93.3898 65.3507H83.5498C88.8398 45.2107 90.9698 30.6807 90.9698 30.6807Z" fill="white"></path>
    </mask>
    <g mask="url(#mask23_298_3491)">
      <mask id="mask24_298_3491" style="mask-type:luminance" maskUnits="userSpaceOnUse" x="83" y="30" width="21" height="36">
        <path d="M103.65 30.6807H83.5498V65.3507H103.65V30.6807Z" fill="white"></path>
      </mask>
      <g mask="url(#mask24_298_3491)">
        <mask id="mask25_298_3491" style="mask-type:luminance" maskUnits="userSpaceOnUse" x="83" y="30" width="21" height="36">
          <path d="M103.65 30.6807H83.5498V65.3507H103.65V30.6807Z" fill="white"></path>
        </mask>
        <g mask="url(#mask25_298_3491)">
          <rect x="83.4395" y="30.5205" width="20.4" height="35.04" fill="url(#pattern7_298_3491)"></rect>
        </g>
      </g>
    </g>
  </g>
  <path d="M40.9304 47.7599L41.0004 47.71L40.8604 47.75L40.9304 47.7599Z" fill="white"></path>
  <defs>
    <pattern id="pattern0_298_3491" patternContentUnits="objectBoundingBox" width="1" height="1">
      <use href="#image0_298_3491" transform="scale(0.00234742 0.00208333)"></use>
    </pattern>
    <pattern id="pattern1_298_3491" patternContentUnits="objectBoundingBox" width="1" height="1">
      <use href="#image1_298_3491" transform="scale(0.0022779 0.00204918)"></use>
    </pattern>
    <pattern id="pattern2_298_3491" patternContentUnits="objectBoundingBox" width="1" height="1">
      <use href="#image2_298_3491" transform="scale(0.0027933 0.00877193)"></use>
    </pattern>
    <pattern id="pattern3_298_3491" patternContentUnits="objectBoundingBox" width="1" height="1">
      <use href="#image3_298_3491" transform="scale(0.00308642 0.0140845)"></use>
    </pattern>
    <pattern id="pattern4_298_3491" patternContentUnits="objectBoundingBox" width="1" height="1">
      <use href="#image4_298_3491" transform="scale(0.00492611 0.005)"></use>
    </pattern>
    <pattern id="pattern5_298_3491" patternContentUnits="objectBoundingBox" width="1" height="1">
      <use href="#image5_298_3491" transform="scale(0.00568182 0.00534759)"></use>
    </pattern>
    <pattern id="pattern6_298_3491" patternContentUnits="objectBoundingBox" width="1" height="1">
      <use href="#image6_298_3491" transform="scale(0.00434783 0.010101)"></use>
    </pattern>
    <pattern id="pattern7_298_3491" patternContentUnits="objectBoundingBox" width="1" height="1">
      <use href="#image7_298_3491" transform="scale(0.0120482 0.00694444)"></use>
    </pattern>
    <image id="image0_298_3491" width="426" height="480"></image>
    <image id="image1_298_3491" width="439" height="488"></image>
    <image id="image2_298_3491" width="358" height="114"></image>
    <image id="image3_298_3491" width="324" height="71"></image>
    <image id="image4_298_3491" width="203" height="200"></image>
    <image id="image5_298_3491" width="176" height="187"></image>
    <image id="image6_298_3491" width="230" height="99"></image>
    <image id="image7_298_3491" width="83" height="144"></image>
  </defs>
</svg>