<?xml version="1.0"?>

<svg version="1.1" id="katman_1" xmlns="http://www.w3.org/2000/svg" xmlns:xlink="http://www.w3.org/1999/xlink" x="0px" y="0px" viewBox="0 0 72.9 50.06" style="enable-background:new 0 0 72.9 50.06;" xml:space="preserve">

<g id="グループ_75866" transform="translate(0 0)">
&#x9;<path id="パス_792" class="st0" d="M30.24,42.31h-0.95v4.67h2.58v-0.85h-1.63V42.31z"></path>
&#x9;<path id="パス_793" class="st0" d="M32.2,46.98h2.52l0.18-0.85h-1.76v-1.14h1.37v-0.83h-1.37v-1h1.77v-0.86H32.2L32.2,46.98z"></path>
&#x9;<path id="パス_794" class="st0" d="M36.07,42.31l-1,4.67h0.91l0.17-0.85h1.17l0.17,0.85h0.91l-1-4.67H36.07z M36.32,45.3&#xA;&#x9;&#x9;l0.4-2.01h0.04l0.4,2.01H36.32z"></path>
&#x9;<rect id="長方形_138109" x="28.13" y="46.13" class="st0" width="0.82" height="0.85"></rect>
&#x9;<path id="パス_795" class="st0" d="M43.72,45.97l-0.17,0.17h-0.59l-0.17-0.17v-3.67h-0.93v4.06l0.61,0.61h1.58l0.59-0.59v-4.08&#xA;&#x9;&#x9;h-0.93V45.97z"></path>
&#x9;<path id="パス_796" class="st0" d="M47.85,43.16v-0.85h-2.72v4.67h2.72v-0.85h-1.77v-1.14h1.37v-0.83h-1.37v-1L47.85,43.16z"></path>
&#x9;<path id="パス_797" class="st0" d="M40.51,43.93l0.91-0.59v-0.4l-0.62-0.62h-1.58l-0.62,0.62v3.43l0.62,0.62h1.58l0.62-0.62v-2.2&#xA;&#x9;&#x9;h-0.04l-1.68,1.09v0.06h0.77v0.66l-0.17,0.17h-0.6l-0.17-0.17v-2.65l0.17-0.17h0.61l0.16,0.16v0.61L40.51,43.93z"></path>
&#x9;<g id="グループ_74524" transform="translate(0)">
&#x9;&#x9;<path id="パス_798" class="st0" d="M25.04,3.07V34.9l11.4,5.08l11.4-5.08V3.07H25.04z M36.44,38.22l-9.84-4.34V4.64h19.68v29.2&#xA;&#x9;&#x9;&#x9;L36.44,38.22z M44.94,25.29H27.28v-0.11l1.45-0.94v-6.16l-1.45-0.94v-0.11h12.57v0.11l-3.61,2.35h-4.59v3.36h10.4v-2.15h0.11&#xA;&#x9;&#x9;&#x9;l2.8,1.82L44.94,25.29z M45.28,8.99V8.87l-4.59-2.98H27.28V6l3.61,2.35h9.06l1.2,0.78l-1.2,0.78h-8.32l-2.8-1.82h-0.11V15&#xA;&#x9;&#x9;&#x9;l-1.45,0.94v0.11h13.41l4.59-2.98v-0.12l-3.06-1.99L45.28,8.99z M39.96,13.6h-8.32v-1.57h8.32l1.2,0.78L39.96,13.6z M44.94,30.6&#xA;&#x9;&#x9;&#x9;v2.51l-8.5,3.78l-9.17-4.08v-0.2h1.45v-5.32l-1.45-0.94v-0.11H43.3v0.11l-3.61,2.35h-8.05v3.36l4.81,2.14l3.81-1.7l-3.81-1.7v-0.2&#xA;&#x9;&#x9;&#x9;L44.94,30.6z"></path>
&#x9;</g>
&#x9;<path id="パス_799" class="st0" d="M27.87,44.93l-0.59-0.39l0.59-0.39v-1.23l-0.62-0.62h-2.2v4.67h2.22l0.6-0.6L27.87,44.93z&#xA;&#x9;&#x9; M25.99,43.16h0.73l0.2,0.2v0.52l-0.93,0.61L25.99,43.16z M26.93,45.93l-0.21,0.21h-0.73v-0.76l0.94-0.61L26.93,45.93z"></path>
</g>
</svg>