<svg xmlns="http://www.w3.org/2000/svg" width="177.71" height="214.86" viewBox="0 0 177.71 214.86"><title>Chinese Basketball Association logo - Brandlogos.net</title><path d="M584.84,612.4,562,587a22.66,22.66,0,0,0-16.21-7H529.25v2.1a14,14,0,0,0-7.11-1.92l-63.65-.07c-9.57,0-13.07,7.54-13.08,12.6v14a12,12,0,0,0,3.55,8.94,14.7,14.7,0,0,0,9.58,3.72H483l.06-.07h39a14.94,14.94,0,0,0,7.18-1.93v2h18.27v-9.13H549a8.41,8.41,0,0,0,6.82-3.56l9.84,11.23,1.31,1.5h24.2Z" transform="translate(-423.14 -404.57)" style="fill:#fff"></path><path d="M545.84,584.26a18.12,18.12,0,0,1,12.92,5.52l22.79,25.4H569l-16.66-19a13.11,13.11,0,0,0-7-3.38h-2.16v5.56H549a4,4,0,0,1,3.88,3.88A3.93,3.93,0,0,1,549,606h-5.81v9.13h-9.54V584.26Z" transform="translate(-423.14 -404.57)" style="fill:#313435"></path><path d="M458.49,584.37c-8.69,0-8.72,8.37-8.72,8.37v14c0,8.46,8.74,8.41,8.74,8.41h22.67l8.64-8.38H462.25a2.64,2.64,0,0,1-2.78-2.73v-8.41a2.79,2.79,0,0,1,2.86-2.9h25.21a10.94,10.94,0,0,0,0-2.16,7.36,7.36,0,0,1,1.26-4.13,6.84,6.84,0,0,1,2-2.11Z" transform="translate(-423.14 -404.57)" style="fill:#972023"></path><path d="M526.86,599.65s3.78-1.25,3.78-6.88c0-8.4-8.61-8.42-8.61-8.42H498.94c-8.73,0-8.7,7.75-8.72,8.42v10.59h9.6V595.7a2.92,2.92,0,0,1,3.18-2.83h16.7s1.76.08,1.76,1.68a1.64,1.64,0,0,1-1.72,1.76h-17v7.13h16.88a1.72,1.72,0,0,1,1.82,1.77,1.66,1.66,0,0,1-1.82,1.67H494.52l-8.5,8.25h36s8.58.16,8.58-8.36c0-5.37-3.78-7.12-3.78-7.12" transform="translate(-423.14 -404.57)" style="fill:#313435"></path><path d="M512,404.57a90,90,0,0,0-59.69,22.37,4.7,4.7,0,0,1-.05,1.39s-.57-.47-.81-.63c-.3.27-.53.44-.86.77A84.13,84.13,0,0,0,424.38,505c.15-.05.39-.45.67-.36.53.16.34,6.35,3.78,16.42,12.66,32.62,45.11,55.85,83.18,55.85a90.25,90.25,0,0,0,55.94-19.24c-16.13-19.38-26.17-45.06-23.9-47.09,4-3.57,8.7,11.88,26,17.88,16.3,5.65,23.1-3.49,25.33-7.84a83.62,83.62,0,0,0,5.5-29.89c0-47.59-39.78-86.18-88.85-86.18" transform="translate(-423.14 -404.57)" style="fill:#fff"></path><path d="M570.75,431.8a60.49,60.49,0,0,0-43-6.88c-12.11,2.56-16,4.28-25.51,5.47-2.89.36-11.93,2.53-13.17-.23-1.55-3.43,8.48-18.1,20.41-21.42,0,0,33.93-2.84,61.25,23" transform="translate(-423.14 -404.57)" style="fill:#060002"></path><path d="M503.9,409.08s-10,4.45-15.36,9.87c-7.32,7.41-5.75,8.38-9.39,11-3.85,2.73-12.77.68-19.35-3.67,0,0,17.07-14.68,44.09-17.16" transform="translate(-423.14 -404.57)" style="fill:#09311e"></path><path d="M462.29,487.38c.12-1.31.72-4-.94-5.57-1.33-1.23-2.12-1.8-4.21-1.57-5.84.65-25.37,12.07-22.38,44.12a84.13,84.13,0,0,0,19.59,26.41c15.4,14.34,34.87,19,34.83,18.92s-21.43-17-26.17-55.44a138.44,138.44,0,0,1-.72-26.88" transform="translate(-423.14 -404.57)" style="fill:#152a4e"></path><path d="M558.65,559.16S542.27,549,520.5,523.08c-10.58-14.23-20.93-28.08-27-33.06-7.23-5.93-16.28-12-21.06-8.56-1.75,1.26-2.13,7.53-2.36,15.1a137.62,137.62,0,0,0,.83,21.35c1.6,11.34,4.56,39.5,24,53.22,0,0,32.69,8,63.68-12" transform="translate(-423.14 -404.57)" style="fill:#972023"></path><path d="M574,435.11s-.57-.36-1.61-.89a37.08,37.08,0,0,0-19.66.89c-14.93,4.6-29.59,6.26-29.94,4.1-.11-.65,6.14-2.37,14.59-7.6a28.62,28.62,0,0,1,7.72-3.28,52.32,52.32,0,0,0-13.05,2c-24.17,7.15-40,8.39-45.47,8.87-3.4.3-4.42.91-5.75,5.12-.33,1-1.77,4.58-2.22,5.72,1.73,0,7.1-1.88,11.33-4,3-1.52,11.07-3.24,9.13-1.2-4,4.25,4.32,5.12,4.33,5.12,31.73,4.55,66.6,18.62,86.05,40.71,1.9,2.15,6.1,7.82,6.54,9,0,0,6.1-35.79-22-64.64m6.93,54c-15.82-12-58.5-29.57-104.75-31.37,0-.09-1,3.51-1.53,5.61a5.17,5.17,0,0,0,3.93,6.57,34.49,34.49,0,0,1,9.54,3.61c10.7,6.52,15.8,9.73,30.66,33.21,16.78,26.5,37.67,45.87,43.82,49.77-17.75-21.93-25.08-44.43-22.36-48.68,2-3.18,7.73-2.79,13.84,4.25,14.43,16.65,31.13,16.81,37.15,7.23,2-3.17,3.42-10.53,4.62-16,0,0-4.58-6.73-14.9-14.17" transform="translate(-423.14 -404.57)" style="fill:#972023"></path><path d="M431.21,466.25a80.91,80.91,0,0,0-3.55,30.36c.83-1,2-1.2,1.92.75a54,54,0,0,0,3.46,23l0,.05,0,.05.07.16c-4.91-32.2,14.83-47.76,25.33-50.19,6.59-1.54,7.47-3.91,9.31-12.85-23.69-.76-32.06,4.43-36.58,8.7m42.28-27a3.53,3.53,0,0,0-2.31-2.15c-10.15-3.86-13.4-9.38-13.4-9.38-1.23.95-2.17,1.87-3.35,2.93a7.78,7.78,0,0,1-.25,3.25c-.19.14-.77-.91-1.49-1.67a84.45,84.45,0,0,0-11.6,13.83,85.46,85.46,0,0,0-8.4,16s4.55-10.5,22.31-11.71c5.47-.38,3-5,4.32-6.15.67-.55,3.19,1.28,4.23,2.31s4.84,3.56,6.91,3.52c1.74-5.06,4.23-7.92,3-10.79" transform="translate(-423.14 -404.57)" style="fill:#bf761d"></path></svg>