<svg xmlns="http://www.w3.org/2000/svg" viewBox="0 0 220 156"><path fill="none" stroke="#853b3d" stroke-width="2" d="m91.62 36.91-5.29-3.18" vector-effect="non-scaling-stroke"></path><path fill="#f1511b" d="M97.06 0h4.25c27.92 4.59 18.98 46.12-9.69 36.91l-5.29-3.18C74.5 21.53 80.16 2.73 97.06 0Z"></path><path fill="#19255f" d="m86.33 33.73 5.29 3.18-30.61 43.87a1.06 1.03-34.3 0 0-.16.8l10.92 48.44a1 1 0 0 1-.98 1.22l-26.1.01a1.01 1.01 0 0 1-1-.87c-.47-3.65-5.17-42.41-5.52-42.44a.4.39-80.2 0 0-.43.31l-10.13 42.23a1.01 1.01 0 0 1-.98.77H2.35a1.01 1 6.8 0 1-.98-1.24l23-95a1 1 0 0 1 .97-.76h24.25a1 1 0 0 1 .97 1.23Q46.02 54.9 41.14 73.8c-.11.41-.18.52.37.49a.33.32-75.7 0 0 .26-.16l23.21-39.29a1.01 1-73.9 0 1 .88-.49q10.23.21 20.47-.62Zm61.16 46.17c0 .3.2.5.5.58 5.83 1.53 11.04 2.7 13.82 8.29 3.24 6.52 1.14 17.33-2.02 23.77-6.88 14.04-24.23 18.03-38.99 18.23q-17.59.24-35.2.33-1.33.01-.34-.89.13-.12.29-.18c28.57-11.25 69.81-41.24 50.41-78q-4.89-9.26-13.19-15.98-2.14-1.73.61-1.77 12.6-.21 24.86.48c7.94.45 19.21 2.76 22.52 10.69 3.09 7.41-.13 19.16-4.69 25.37q-6.39 8.72-18.26 8.74a.33.32 89.1 0 0-.32.34Zm71.3 28.69-5.3 22.04a.51.51 0 0 1-.49.39l-44.96.01a.51.51 0 0 1-.5-.63l23.2-95.76a.51.51 0 0 1 .49-.39h25.26a.51.51 0 0 1 .5.63l-17.6 72.56a.51.51 0 0 0 .5.63l18.4-.11a.51.51 0 0 1 .5.63Z"></path><path fill="#19255f" d="M110.15 50.58c18.98 15.42 13.96 38.05.07 54.63q-12.06 14.39-28 24.31-2.08 1.29-1.5-1.09l20.07-82.79a1 1 0 0 1 1.49-.62q4.01 2.42 7.87 5.56ZM15.44 156h-2.5c-3.75-1-1.5-7.24-.59-10.01 1.23-3.73 4.73-5.36 8.12-2.88a.99.99 0 0 1 .39.99c-.74 4.01-1.24 10.47-5.42 11.9Zm-.914-2.256a4.97 1.18 103.9 0 0 2.34-4.54 4.97 1.18 103.9 0 0 .048-5.109 4.97 1.18 103.9 0 0-2.34 4.542 4.97 1.18 103.9 0 0-.048 5.107ZM88.69 156h-2.5c-4.23-2.2.4-7.99 1.13-3.2q.32 2.04 1.72.53c3.05-3.28-7.12-3.92-.88-10.81a1.04 1.03 14.8 0 1 .54-.31q5.31-1.07 5.23 3.07a1 .99 84.2 0 1-.78.96q-1.73.37-2.44-1.28a.8.79 71.3 0 0-.92-.46q-1.12.27-.72 1.7a.96.96 0 0 0 .33.51l2.64 2.12a.99.98-75.7 0 1 .37.63q.72 4.79-3.72 6.54Zm104.75 0h-1.5q-2.04-.94-1.59-3.22c.98-4.93 1.1-12.64 8.83-10.31a1 1 0 0 1 .71.98l-.05 2.6a1 .99-82.5 0 1-1.24.96l-.73-.19a1.01 1-83 0 1-.76-.98q.01-1.26-.99-1.47a.8.8 0 0 0-.94.58l-1.9 7.44a1.02 1.01 26.6 0 0 .35 1.04q1.15.89 1.9-.95.4-.99-.18-2.46a1 1 0 0 1 .84-1.36l1.91-.18a1 1 0 0 1 1.07 1.2l-1.07 5.15a1.01 1 13.4 0 1-1.24.76q-1.66-.44-3.42.41Zm11.5 0h-2.5q-2.45-.98-1.86-3.69c.24-1.11 1.72-13.07 4.73-9.52a1 .97-61.4 0 1 .23.82q-.68 3.84-1.76 7.41c-.3 1-.87 3.82 1.49 2.11a1.03 1.03 0 0 0 .39-.58l2.25-9.4a1.02 1.02 0 0 1 .47-.64c2.95-1.67 2.44 1.44 2.03 2.89-1.05 3.74-.99 9.21-5.47 10.6Z"></path><path fill="#19255f" d="M8.02 156.05 6.69 156q-1.96-.66-1.42-2.77a1 .91-48.9 0 0-.01-.56c-.95-2.87-1.96 2.67-3.32 3.33h-.75q-1.31-.35-.83-2.17c1.06-4.03 1.99-11.8 4.39-11.65a1 1 0 0 1 .91.83q.24 1.36-.34 2.69c-.34.8.25 1.62.77.53q1.25-2.61 2.21-3.37.83-.67 1.56-.61 1.77.13.74 1.57l-2.88 4.03a1.02 1 55.5 0 0-.15.86q1.03 3.65.45 7.34Zm19.36.06-.69-.11q-.19-.17-.47-.28a1 1 0 0 1-.66-.94c.01-.6 1.38-6.38-1.21-4a.97.97 0 0 0-.32.72q-.04 2.8-2.09 4.5h-.5l-.69-.44a1.02 1.01 23.1 0 1-.44-1.08l2.72-11.22a1 1 0 0 1 .93-.76l5.34-.21a1.01 1.01 0 0 1 1.01.74q.77 2.94-.81 5.11a1.05 1.05 0 0 0-.18.73q.56 4.16-1.94 7.24Zm-1.798-8.01a1.79 1.12 111.9 0 0 1.707-1.242 1.79 1.12 111.9 0 0-.371-2.079 1.79 1.12 111.9 0 0-1.707 1.243 1.79 1.12 111.9 0 0 .371 2.079Zm10.528-.54 1.68.2a1 1 0 0 1 .79 1.41q-.7 1.54-2.95 1a1.02 1.01 32.7 0 0-.85.18q-1.13.89-.57 2.13a1 .99-18.2 0 0 1.12.56q2.92-.62 2.3 1.94a1 1 0 0 1-.97.77l-5.2.01a1.01 1 6.8 0 1-.98-1.24l2.7-11.25a1.01 1 4.7 0 1 .91-.77l4.9-.31a1.05 1.02 62.3 0 1 .7.23c3.45 2.81-4.57 1.82-4.46 4.19a1.01 1.01 0 0 0 .88.95Zm4.58 8.44h-.5q-.35-.04-.61-.19a1.01 1-63 0 1-.41-1.28q2.27-5.05 4.46-10.1c.82-1.89 2.06-2.81 4.02-1.95a1.01 1-78.5 0 1 .59.9q.14 8.71-.33 11.32-.29 1.6-2.14 1.09a1.04 1.02-89.6 0 1-.71-.73l-.42-1.69a.78.76-85.7 0 0-.45-.54c-1.28-.56-2.18 2.4-3.5 3.17Zm3.6-7.71q-.38.91-.48 1.8a.81.81 0 0 0 .69.89q.79.1.88-.92.07-.81.13-1.46.4-4.23-1.22-.31ZM55.94 156h-.5c-1.65-.66-1.36-4.07-1.48-5.62a.41.4 87.7 0 0-.4-.38l-.28-.01a.34.33 2.8 0 0-.34.3c-.18 1.8.14 5.04-2 5.71h-.5c-1.97-.57 1.16-10.15 1.58-12 .44-1.93 2.02-2.41 3.53-1.16a1 .99-68.9 0 1 .36.83q-.05.8-.06 1.45-.13 6.14 1.26.16l.44-1.89a1.05 1.01 75.5 0 1 .27-.48c4.88-4.81-.11 11.69-.17 11.95a.99.98-4.5 0 1-.62.72l-1.09.42Zm26.59.05-1.59-.05q-1.25-.67-1.25-2.07a1 1 0 0 0-.94-1l-.28-.02a1 1 0 0 0-1.02.72q-.48 1.64-2.01 2.37h-.75q-1.11-.5-.55-1.68 2.62-5.51 4.89-11.15a1.01 1.01 0 0 1 .55-.55q1.5-.61 2.93-.14a1 .99-79.8 0 1 .69 1l-.67 12.57Zm-3.2-7.69-.6 1.25a1 .99-54.5 0 0 .18 1.11c.84.89 1.52-.36 1.58-1.18q.02-.45.05-.86.23-3.37-1.21-.32Zm21.27 7.69-1.16-.05q-1.31-1.21-.98-3.06a.98.98 0 0 0-.35-.95c-1.1-.9-1.27 3.23-2.92 4.01h-.75l-.52-.33a1 1 0 0 1-.44-1.07l2.69-11.35a1 .98 88 0 1 .66-.72q3.32-1.08 2.01 2.6c-.26.72.14 2.82.78.87.37-1.12 3.66-5.87 4.53-3.35a1 1 0 0 1-.12.9l-3.05 4.4a1.01 1-38.7 0 0-.11.93q1.48 3.77-.27 7.17Zm7.75-3.03q3.15-.74 2.41 1.99a1.01 1 7.5 0 1-.97.74h-5.25a1 .99 6.8 0 1-.97-1.23l2.73-11.27a1.01.99-84.4 0 1 .91-.76l4.8-.28a1.01 1.01 0 0 1 1.04 1.23l-.18.74a1.01 1-85 0 1-.92.78l-2.59.12a1.01 1.01 0 0 0-.94.83q-.39 2.22 2.25 1.54a1.01 1 73.8 0 1 1.21.67q.44 1.44-1.45 2.14a.99.93 40.1 0 1-.56.03q-2.81-.61-2.75 1.78a1.01 1 82.5 0 0 1.23.95Zm7.76-7.75c-6.07-2.99 8.51-4.69 6.49-1.03a1.03 1.02 4.5 0 1-.57.48l-1.76.56a.99.99 0 0 0-.67.76c-.34 1.73-1.36 8.88-2.74 9.6q-.79.4-1.66.07a1 1 0 0 1-.61-1.18l2.05-8.12a1.01 1.01 0 0 0-.53-1.14Zm23.05 10.79-.97-.06c-1.33-.85-.93-3.54-2.51-3.15a.77.77 0 0 0-.55.47q-.69 1.69-2.19 2.68h-.75q-.23-.06-.4-.17a1 1 0 0 1-.38-1.28q2.34-5 4.49-10.09c.81-1.92 2.1-2.98 4.1-1.96a.99.98 10.2 0 1 .54.77q.84 6.63-1.38 12.79Zm-2.43-7.93q-.45.74-.66 1.49c-.34 1.24.95 1.64 1.45.53q.37-.84.4-1.67.07-2.43-1.19-.35Zm10.35 5.01c2.53.36 2.2 2.23.01 2.56q-2.32.35-4.59-.16a1 1 0 0 1-.75-1.23q1.35-5.25 2.36-10.38.53-2.68 2.75-1.52a.99.99 0 0 1 .51 1.12l-1.96 8.16a1 .99 18.3 0 0 .58 1.15q.53.22 1.09.3Zm6.35-1.31a1 .99 1.3 0 0 1.16 1.21q3.17-.61 1.84 2.17a1 .99 12.7 0 1-.92.57l-4.72-.08a1 1 0 0 1-.96-1.23q1.2-4.99 2.29-9.99c.33-1.51 1.18-3.25 2.95-1.96a1.01 1.01 0 0 1 .38 1.05l-2.02 8.26Zm15.98 2.21-.03.75a1 1 0 0 1-1 .97l-4.75-.02a1 1 0 0 1-.97-1.22q1.13-5.18 2.3-10.25c.34-1.47 1.32-2.84 2.88-1.71a1 .99 24.7 0 1 .39 1.03l-1.89 8.17a1 1 0 0 0 .96 1.22l1.13.02a1 1 0 0 1 .98 1.04Zm5.22-3.07c-1.73 4.39 5.37-.16 3.21 4.22a1.01 1-76.6 0 1-.9.56h-4.98a.99.99 0 0 1-.97-1.21l2.48-11.24a1 .99 4.6 0 1 .92-.78c1.65-.08 7.63-1.56 5.86 1.94a.99.99 0 0 1-.9.54l-2.39-.01a1.01.99 15.3 0 0-.86.48q-1.5 2.49 1.98 2.25a1 .99 2.5 0 1 1.06 1.15l-.07.42a1.01 1 1.8 0 1-.91.84l-2.68.21a1 1 0 0 0-.85.63Zm12.56 5.03h-.75c-1.51-.84-1.02-3.64-2.6-3.19a1.03 1-87.4 0 0-.67.63q-.56 1.59-1.98 2.56h-.75q-1.38-.37-.89-1.44 2.68-5.75 5.17-11.61a1 1 0 0 1 .92-.61h2.18a1.01 1-89.2 0 1 1 1.04l-.4 11.29a.98.97 74.3 0 1-.44.8l-.79.53Zm-1.4-5.99c1.14-5.84-1.55-1.2-1.55-.13a.81.8.4 0 0 .8.8q.61 0 .75-.67Zm28.85 2.92 1.92.1a1 .99 87.9 0 1 .94.88c.14 1.18-.56 1.83-1.77 1.84q-2.41.02-4.67-.02a1 .99 7.1 0 1-.96-1.23l2.75-11.2a1.01 1.01 0 0 1 .91-.76l4.95-.29a1 1 0 0 1 1.05 1.12q-.31 2.38-3.18 1.55a.99.98 29.1 0 0-1 .28c-3.39 3.63 4.11 1.76 3.15 3.49a2.17.61-62.2 0 1-1.45 1.53q-2.89-.78-3.55 1.43a1 1 0 0 0 .91 1.28Z"></path><path fill="#19255f" d="M73.98 143.03q1.31 2.5-.62 4.72a.99.98-27.3 0 0-.24.74q.79 8.74-7.96 7.16a1 1 0 0 1-.8-1.21l2.6-11.17a1.01 1 6.5 0 1 .98-.77l5.15-.01a1.03 1 75.6 0 1 .89.54Zm-4.404 4.74a1.68 1.04 111.8 0 0 1.59-1.174 1.68 1.04 111.8 0 0-.342-1.946 1.68 1.04 111.8 0 0-1.59 1.174 1.68 1.04 111.8 0 0 .342 1.946Zm-1.366 5.408a1.81 1.14 117.3 0 0 1.843-1.085 1.81 1.14 117.3 0 0-.183-2.131 1.81 1.14 117.3 0 0-1.843 1.085 1.81 1.14 117.3 0 0 .183 2.131Zm60.99-10.648c5.45.45 1.44 4.14 1.34 6.22q-.05 1.01.27 2.17a1.03.99-44.1 0 1-.02.62q-2.17 5.73-8.35 4.04a1 1 0 0 1-.71-1.19l2.67-11.06a.98.98 0 0 1 .87-.76q2.01-.2 3.93-.04Zm-2.192 5.137a1.57 1.12 109.8 0 0 1.586-1.098 1.57 1.12 109.8 0 0-.522-1.856 1.57 1.12 109.8 0 0-1.586 1.098 1.57 1.12 109.8 0 0 .522 1.856Zm-1.409 5.748a1.88 1.18 114.2 0 0 1.847-1.231 1.88 1.18 114.2 0 0-.305-2.199 1.88 1.18 114.2 0 0-1.847 1.231 1.88 1.18 114.2 0 0 .305 2.199Z"></path></svg>