<svg xmlns="http://www.w3.org/2000/svg" xmlns:xlink="http://www.w3.org/1999/xlink" version="1.1" id="Layer_1" x="0px" y="0px" width="249" height="80" viewBox="0 0 249 80" style="enable-background:new 0 0 249 80;" xml:space="preserve">

<linearGradient id="SVGID_1_" gradientUnits="userSpaceOnUse" x1="0" y1="0" x2="6.123234e-17" y2="-1">
&#x9;<stop offset="0" style="stop-color:#1D59F4"></stop>
&#x9;<stop offset="0.618" style="stop-color:#2D65EE"></stop>
&#x9;<stop offset="0.6292" style="stop-color:#3864F3"></stop>
&#x9;<stop offset="0.9831" style="stop-color:#00DDFC"></stop>
</linearGradient>
<linearGradient id="SVGID_2_" gradientUnits="userSpaceOnUse" x1="0" y1="0" x2="6.123234e-17" y2="-1">
&#x9;<stop offset="0" style="stop-color:#060606"></stop>
&#x9;<stop offset="0.618" style="stop-color:#000000"></stop>
&#x9;<stop offset="0.6292" style="stop-color:#000000"></stop>
&#x9;<stop offset="0.9831" style="stop-color:#000000"></stop>
</linearGradient>
<g>
&#x9;<g>
&#x9;&#x9;<path class="st0" d="M64.6,49.1c0.2-1.4,0.3-2.8,0.3-4.2c0.9-0.5,1.7-0.9,2.6-1.4c0,2.4-0.2,4.8-0.6,7.2    C66.2,50.2,65.4,49.7,64.6,49.1 M9.8,57.1c-0.9,1-1.7,2.1-2.5,3.1C3.9,54.5,2,47.7,2,40.5C2,18.9,19.6,1.3,41.3,1.3    c21.7,0,39.3,17.6,39.3,39.3c0,6.8-1.8,13.3-4.8,18.9c-0.8-1.1-1.7-2.1-2.6-3.1c2.4-4.8,3.7-10.1,3.7-15.8c0-0.4,0-0.9,0-1.3    c-5.8,1.7-11.4,4.2-16.5,7.5c-1.6-0.8-3.3-1.5-5-2c-0.8-3.7-2-7.4-3.5-10.9c0.6-0.6,1.3-1.3,2-1.9c1.9,4.2,3.3,8.7,4.2,13.2    c2.2-1.5,4.5-2.9,6.9-4.1c-0.3-12.4-4.2-24-11.5-34c0,0,0,0-0.1,0c-3.8,2.4-7.3,5.2-10.4,8.4c3,3.3,5.6,6.8,7.9,10.7    c0.5,0.8,1,1.7,1.4,2.6c2.6-2.3,5.5-4.3,8.4-6.2c0.3,0.8,0.6,1.7,0.8,2.5c-6.7,4.2-12.6,9.7-17.3,16.3c-0.3,0.4-0.5,0.7-0.8,1.1    c-0.6,0-1.1,0-1.7,0c-0.9,0-1.9,0-2.8,0.1c-0.3-0.5-0.6-0.9-0.9-1.3c-2-2.7-4.1-5.3-6.5-7.6c0.4-0.8,0.8-1.6,1.2-2.4    c2.7,2.6,5.2,5.5,7.4,8.6c0.4,0.5,0.7,1,1,1.5c0.3-0.4,0.6-0.9,0.9-1.3c2.4-3.4,5.2-6.6,8.2-9.4c-0.5-1-1.1-2.1-1.7-3.1    c-2.2-3.7-4.7-7.2-7.6-10.3c-0.2-0.2-0.3-0.4-0.5-0.6c-3.4-3.6-7.3-6.8-11.5-9.5c0,0,0,0-0.1,0c-3.4,4.7-6.1,9.7-8,15    c3.3,1.9,6.4,4.1,9.2,6.6c0.4-0.8,0.9-1.6,1.3-2.4c2.1-3.6,4.6-7.1,7.4-10.2c0.6,0.6,1.2,1.2,1.8,1.9c-2.6,3-4.9,6.2-6.9,9.6    c-3.1,5.4-5.4,11.3-6.7,17.5c-1.5,0.6-3,1.2-4.4,1.9c-1.4-0.9-2.9-1.8-4.3-2.7c0-0.6,0-1.3,0-1.9c0-0.3,0-0.7,0-1    c2.1,1.1,4.2,2.3,6.1,3.7c1-4.8,2.5-9.5,4.6-14c-5.1-4.5-10.9-8.1-17.2-10.6c-3.2,4.7-5.3,10.2-6,16.1c3.1,0.9,6.2,2,9.1,3.3    c0.2-5.4,1.1-10.7,2.6-15.7c0.8,0.4,1.5,0.9,2.3,1.3c-1.6,5.4-2.4,11.1-2.4,16.9c0,2.5,0.2,5,0.5,7.4c-0.8,0.5-1.6,1.1-2.4,1.7    c-0.4-2.9-0.7-5.9-0.7-8.8c-3-1.4-6.1-2.6-9.3-3.5c0,0.4,0,0.9,0,1.3C5.7,46.5,7.2,52.2,9.8,57.1 M76.6,36.6    c-0.7-5.9-2.8-11.4-6-16.1c-2.1,0.8-4.1,1.8-6,2.9c1.7,5.3,2.7,10.8,2.9,16.5C70.4,38.6,73.5,37.5,76.6,36.6 M69.1,18.4    c-3-3.8-6.8-7-11.1-9.3c2.4,3.7,4.3,7.7,5.8,11.8C65.5,20,67.3,19.2,69.1,18.4 M41.3,5c-3.1,0-6.2,0.4-9,1.2    c3.2,2.2,6.3,4.8,9,7.6c2.8-2.8,5.8-5.3,9-7.6C47.4,5.4,44.4,5,41.3,5 M24.6,9.2c-4.3,2.3-8.1,5.5-11.1,9.3    c1.8,0.8,3.6,1.6,5.3,2.5C20.3,16.8,22.2,12.9,24.6,9.2"></path>
&#x9;&#x9;<path class="st1" d="M71.2,63.6c-6.8-9.1-17.7-14.5-29.1-14.5c-5.1,0-10,1.1-14.7,3.1c-6.8,3.1-12.2,8-15.9,13.9    c0.6,0.7,1.2,1.4,1.9,2.1c0.9-1.5,1.9-3,3-4.4l0,0c1.8-1.9,5.4-2.4,9.5-2.6c-2.7,3.8-5.2,6.5-7.5,8.9c-0.5,0.5-0.9,1-1.4,1.5    c0.7,0.6,1.4,1.1,2.2,1.6c0.4-0.4,0.7-0.8,1.1-1.2c2.7-2.8,5.7-6,8.8-10.7c1.7,0.1,3.4,0.3,5.3,0.5c-2.3,4.3-4.4,9.6-6.3,15.9    c0.8,0.3,1.7,0.6,2.6,0.8c1.9-6.5,4.1-12,6.4-16.2l5.9,1.7c-2.4,5.1-1.1,10.1,1.2,15.8c0.9-0.1,1.8-0.2,2.7-0.3    c-2.3-5.9-3.6-10.1-1.4-14.6c5.7,2.4,11.1,5.7,15.5,9.7c0.8-0.5,1.6-1,2.3-1.5c-1.9-1.7-3.9-3.3-6.1-4.8    c-3.3-2.3-6.9-4.2-10.5-5.7c1.4-1.7,3.4-2.8,5.5-3.1c0.6-0.1,1.1-0.1,1.8-0.1c3.4,0,7.2,1.3,9.7,2.5c2.7,1.4,4.6,3.2,6.4,5.4    c0.6-0.7,1.2-1.4,1.8-2.1C71.7,64.1,71.2,63.6,71.2,63.6 M27.9,58.4h-0.1c-2.3,0-4.5,0.2-6.4,0.6c2.2-1.8,4.6-3.2,7.2-4.4    c0.4-0.2,0.9-0.4,1.3-0.6C29.8,55,29.2,56.4,27.9,58.4 M36.1,59.2c-1.7-0.3-3.7-0.5-5.3-0.7c1.1-1.9,2.1-3.7,1.8-5.4    c3.1-0.9,6.3-1.4,9.6-1.4c0.2,0,0.8,0.1,0.9,0.1C40.4,53.5,38.1,55.9,36.1,59.2 M52.1,56.7c-3,0.5-5.5,2.1-7.4,4.8    c-1.9-0.7-3.9-1.3-5.8-1.7c2.7-4.1,5.7-6.7,8.8-7.6c5.2,0.9,10.1,2.9,14.3,6C59.6,57.2,55.4,56.2,52.1,56.7"></path>
&#x9;</g>
&#x9;<g>
&#x9;&#x9;<g>
&#x9;&#x9;&#x9;<path class="st0" d="M94,49.1c-3.4,0-5.5-2.3-5.5-5.4l0-7c0-0.5,0.3-1.1,0.8-1.6l2.1-2c0.4-0.4,1-0.6,1.5-0.6h6.4     c1.3,0,2.4,0.4,3.1,1.2l0.6,0.6c0.2,0.2,0.1,0.4-0.1,0.6l-1.3,1.3c-0.2,0.2-0.4,0.3-0.6,0.1l-0.7-0.7c-0.3-0.3-1-0.7-1.6-0.7     h-5.2c-0.3,0-0.5,0-0.8,0.3l-1.4,1.4c-0.3,0.3-0.3,0.7-0.3,1l0,5.6c0,2,1.3,3.6,3.6,3.6h3.9c0.6,0,1.1-0.2,1.5-0.5l1.1-1.1     c0.2-0.2,0.4-0.3,0.6-0.1l1.3,1.3c0.2,0.2,0.1,0.4-0.1,0.6l-1.5,1.4c-0.6,0.5-1.3,0.8-2.2,0.8H94z"></path>
&#x9;&#x9;&#x9;<path class="st0" d="M119.7,32.4c0.3,0,0.5,0.2,0.5,0.5l0,15.8c0,0.3-0.1,0.4-0.4,0.4h-1.6c-0.3,0-0.5-0.2-0.5-0.5l0-6.7h-8.6     l0,6.8c0,0.3-0.1,0.4-0.4,0.4h-1.6c-0.3,0-0.5-0.2-0.5-0.5l0-15.8c0-0.3,0.1-0.4,0.4-0.4h1.6c0.3,0,0.5,0.2,0.5,0.5l0,6.5h8.6     l0-6.7c0-0.3,0.1-0.4,0.4-0.4H119.7z"></path>
&#x9;&#x9;&#x9;<path class="st0" d="M132.9,32.4c3.4,0,5.6,2.4,5.6,5.5l0,10.8c0,0.3-0.1,0.4-0.4,0.4h-1.6c-0.3,0-0.5-0.2-0.5-0.5l0-3.6h-9.4     l0,3.7c0,0.3-0.1,0.4-0.4,0.4h-1.6c-0.3,0-0.5-0.2-0.5-0.5l0-12c0-0.5,0.2-1.1,0.6-1.6l2.1-2c0.4-0.4,1-0.5,1.4-0.5H132.9z      M136,38.3c0-2-1.1-3.5-3.5-3.5h-3.2c-0.3,0-0.6,0.2-0.8,0.4l-1.4,1.4c-0.3,0.3-0.4,0.7-0.4,1l0,4.9h9.4L136,38.3z"></path>
&#x9;&#x9;&#x9;<path class="st0" d="M159,32.4c3.4,0,5.6,2.4,5.6,5.5l0,10.8c0,0.3-0.1,0.4-0.4,0.4h-1.6c-0.3,0-0.5-0.2-0.5-0.5l0-10.3     c0-2-1.1-3.5-3.5-3.5h-2c-0.3,0-0.6,0.2-0.8,0.4L155,36c0.2,0.6,0.3,1.2,0.3,1.9l0,10.8c0,0.3-0.1,0.4-0.4,0.4h-1.6     c-0.3,0-0.5-0.2-0.5-0.5l0-10.3c0-2-1.1-3.5-3.5-3.5h-1.8c-0.3,0-0.6,0.2-0.8,0.4l-1.4,1.4c-0.3,0.3-0.4,0.7-0.4,1l0,11.1     c0,0.3-0.1,0.4-0.4,0.4h-1.6c-0.3,0-0.5-0.2-0.5-0.5l0-12c0-0.5,0.2-1.1,0.6-1.6l2.1-2c0.4-0.4,1-0.5,1.4-0.5h3.2     c1.5,0,2.8,0.5,3.8,1.3l0.7-0.8c0.5-0.4,1-0.5,1.4-0.5H159z"></path>
&#x9;&#x9;&#x9;<path class="st0" d="M177.1,32.4c3.4,0,5.4,2.3,5.5,5.4l0,1.1c0,3.1-2.2,5.5-5.6,5.5h-6l0,4.2c0,0.3-0.2,0.5-0.5,0.5h-1.6     c-0.3,0-0.4-0.1-0.4-0.4l0-12c0-0.5,0.3-1.1,0.8-1.6l2.1-2c0.4-0.4,1-0.6,1.5-0.6H177.1z M176.4,34.8h-2.9     c-0.3,0-0.5,0.1-0.8,0.3l-1.4,1.4c-0.3,0.3-0.3,0.7-0.3,1l0,4.4h5.6c2.4,0,3.5-1.4,3.5-3.4C180,36.4,178.7,34.8,176.4,34.8"></path>
&#x9;&#x9;&#x9;<path class="st0" d="M188.6,48.7c0,0.3-0.1,0.4-0.4,0.4h-1.6c-0.3,0-0.5-0.2-0.5-0.5l0-15.8c0-0.3,0.1-0.4,0.4-0.4h1.6     c0.3,0,0.5,0.2,0.5,0.5L188.6,48.7z"></path>
&#x9;&#x9;&#x9;<path class="st0" d="M207.5,44.9c0,0.5-0.2,1.1-0.6,1.6l-2.1,2c-0.4,0.4-1,0.5-1.4,0.5h-5.5c-3.4,0-5.6-2.4-5.6-5.5l0-7     c0-0.5,0.2-1.1,0.6-1.6l2.1-2c0.4-0.4,1-0.5,1.4-0.5h5.5c3.4,0,5.6,2.4,5.6,5.5L207.5,44.9z M205,38.3c0-2-1.1-3.5-3.5-3.5h-4.1     c-0.3,0-0.6,0.2-0.8,0.4l-1.4,1.4c-0.3,0.3-0.4,0.7-0.4,1l0,5.6c0,2,1.1,3.5,3.5,3.5h4.1c0.3,0,0.6-0.2,0.8-0.4l1.4-1.4     c0.3-0.3,0.4-0.7,0.4-1L205,38.3z"></path>
&#x9;&#x9;&#x9;<path class="st0" d="M223.9,49.1c-0.7,0-1.1-0.4-1.4-0.8l-9.1-12.7l0,13.1c0,0.3-0.1,0.4-0.4,0.4h-1.6c-0.3,0-0.5-0.2-0.5-0.5     l0-14.6c0-1.1,0.5-1.6,1.5-1.6h0.8c0.6,0,1.1,0.4,1.3,0.8l9.1,12.7l0-13.1c0-0.3,0.1-0.4,0.4-0.4h1.6c0.3,0,0.5,0.2,0.5,0.5     l0,14.6c0,1.1-0.5,1.6-1.5,1.6H223.9z"></path>
&#x9;&#x9;&#x9;<path class="st0" d="M239.5,40.5c1.8,0.7,3.5,1.6,3.5,4.5c0,2.3-1.9,4.1-4.6,4.1H232c-0.5,0-1.1-0.3-1.5-0.7l-0.7-0.7     c-0.2-0.2-0.3-0.4-0.1-0.6l1.3-1.3c0.2-0.2,0.4-0.1,0.6,0.1l0.4,0.3c0.3,0.3,0.6,0.3,0.9,0.3h5.1c1.6,0,2.5-1.1,2.5-2.3     c0-0.9-1.1-1.6-2.3-2.1l-4.7-1.3c-2.4-1-3.8-1.8-3.8-4.6c0-2.2,1.8-4,4.5-4h6.2c0.5,0,1,0.2,1.5,0.7l0.7,0.7     c0.2,0.2,0.3,0.4,0.1,0.6l-1.3,1.3c-0.2,0.2-0.4,0.1-0.6-0.1l-0.4-0.3c-0.3-0.3-0.6-0.3-0.9-0.3h-4.9c-1.6,0-2.4,1.1-2.4,2.2     c0,0.9,0.9,1.4,2.4,2.1L239.5,40.5z"></path>
&#x9;&#x9;</g>
&#x9;&#x9;<g>
&#x9;&#x9;&#x9;<path class="st1" d="M88.6,54.7c0-0.3,0.1-0.3,0.3-0.3h1.3c0.3,0,0.4,0.2,0.5,0.4l0,11c0,0.4,0.1,0.5,0.5,0.5h7.4     c0.2,0,0.5,0.2,0.5,0.4l0,1.3c0,0.3-0.1,0.3-0.3,0.3h-8.5c-1.1,0-1.6-0.7-1.6-1.6L88.6,54.7z"></path>
&#x9;&#x9;&#x9;<path class="st1" d="M111.2,54.4c0.2,0,0.4,0.2,0.4,0.4l0,1.3c0,0.3-0.1,0.3-0.3,0.3h-5.1c-0.2,0-0.4,0.1-0.7,0.4l-1.2,1.2     c-0.3,0.3-0.4,0.6-0.3,0.8l0,1.5h5.9c0.3,0,0.5,0.2,0.5,0.4l0,1.3c0,0.3-0.1,0.3-0.3,0.3H104l0,3.5c0,0.4,0.1,0.5,0.5,0.5h6.7     c0.2,0,0.4,0.2,0.5,0.4l0,1.3c0,0.3-0.1,0.3-0.3,0.3h-7.8c-1.1,0-1.6-0.7-1.6-1.6l0-9c0-0.4,0.1-0.9,0.5-1.3l1.8-1.7     c0.4-0.4,0.8-0.4,1.2-0.4H111.2z"></path>
&#x9;&#x9;&#x9;<path class="st1" d="M121.7,54.4c2.8,0,4.7,2,4.7,4.6l0,9.1c0,0.3-0.1,0.3-0.3,0.3h-1.4c-0.3,0-0.4-0.2-0.4-0.4l0-3h-7.9l0,3.1     c0,0.3-0.1,0.3-0.3,0.3h-1.3c-0.3,0-0.4-0.2-0.5-0.4l0-10.1c0-0.4,0.1-0.9,0.5-1.3l1.8-1.7c0.4-0.4,0.8-0.4,1.2-0.4H121.7z      M124.3,59.3c0-1.7-1-2.9-2.9-2.9h-2.7c-0.2,0-0.5,0.1-0.7,0.4l-1.2,1.2c-0.3,0.3-0.4,0.6-0.3,0.8l0,4.1h7.9L124.3,59.3z"></path>
&#x9;&#x9;&#x9;<path class="st1" d="M141.9,64.9c0,0.4-0.1,0.9-0.5,1.3l-1.8,1.7c-0.4,0.4-0.8,0.4-1.2,0.4h-4.5c-2.8,0-4.7-2-4.7-4.6l0-5.9     c0-0.4,0.1-0.9,0.5-1.3l1.8-1.7c0.4-0.4,0.8-0.4,1.2-0.4h4.6c1.4,0,2.6,0.5,3.4,1.3L141,56c0.2,0.2,0.2,0.3,0.1,0.5l-1.1,1.1     c-0.2,0.2-0.3,0.1-0.5-0.1l-0.4-0.3c-0.4-0.4-1.2-0.7-1.9-0.7h-3.7c-0.2,0-0.5,0.1-0.7,0.4l-1.2,1.2c-0.3,0.3-0.4,0.6-0.3,0.8     l0,4.7c0,1.7,0.9,2.9,2.9,2.9h3.3c0.2,0,0.5-0.1,0.7-0.4l1.2-1.2c0.2-0.3,0.3-0.6,0.4-0.9c0-0.1,0-0.3,0-0.5c0-0.1,0-0.4-0.2-0.7     l-0.2-0.2c-0.2-0.2-0.5-0.2-0.7-0.2h-3c-0.3,0-0.5-0.2-0.5-0.4l0-1.3c0-0.3,0.1-0.3,0.3-0.3h3.7c0.4,0,0.9,0.2,1.2,0.5l0.8,0.7     c0.4,0.4,0.6,0.9,0.6,1.3L141.9,64.9z"></path>
&#x9;&#x9;&#x9;<path class="st1" d="M157,64.9c0,0.4-0.1,0.9-0.5,1.3l-1.8,1.7c-0.4,0.4-0.8,0.4-1.2,0.4h-4c-2.8,0-4.7-2-4.7-4.6l0-9.1     c0-0.3,0.1-0.3,0.3-0.3h1.3c0.3,0,0.4,0.2,0.4,0.4l0,8.6c0,1.7,0.9,2.9,2.9,2.9h2.8c0.2,0,0.5-0.1,0.7-0.4l1.2-1.2     c0.3-0.3,0.4-0.6,0.4-0.8l0-9.3c0-0.3,0.1-0.3,0.3-0.3h1.3c0.3,0,0.5,0.2,0.5,0.4L157,64.9z"></path>
&#x9;&#x9;&#x9;<path class="st1" d="M169.5,54.4c0.2,0,0.4,0.2,0.4,0.4l0,1.3c0,0.3-0.1,0.3-0.3,0.3h-5.1c-0.2,0-0.4,0.1-0.7,0.4l-1.2,1.2     c-0.3,0.3-0.4,0.6-0.3,0.8v1.5h5.9c0.3,0,0.5,0.2,0.5,0.4l0,1.3c0,0.3-0.1,0.3-0.3,0.3h-6.1l0,3.5c0,0.4,0.1,0.5,0.5,0.5h6.7     c0.2,0,0.5,0.2,0.5,0.4l0,1.3c0,0.3-0.1,0.3-0.3,0.3h-7.8c-1.1,0-1.6-0.7-1.6-1.6l0-9c0-0.4,0.1-0.9,0.5-1.3l1.8-1.7     c0.4-0.4,0.8-0.4,1.2-0.4H169.5z"></path>
&#x9;&#x9;</g>
&#x9;&#x9;<g>
&#x9;&#x9;&#x9;<path class="st1" d="M99.8,15.1c0.4,0.4,0.5,0.9,0.5,1.3l0,1.2c0,1-0.3,1.8-0.9,2.4l0.9,0.9c0.4,0.4,0.5,0.9,0.5,1.3l0,1.2     c0,2.1-1,3.5-4,3.5h-6.8c-1.1,0-1.5-0.5-1.5-1.4l0-9c0-0.4,0.2-0.9,0.6-1.4l1.8-1.7c0.4-0.4,0.9-0.5,1.2-0.5h4.6     c0.4,0,0.9,0.1,1.3,0.4L99.8,15.1z M98.5,22.3l-1-1c-0.2-0.2-0.5-0.3-1-0.3h-5.8l0,3.4c0,0.4,0.2,0.6,0.7,0.6l5.2,0     c1.7,0,2.2-0.6,2.2-1.7C98.7,23,98.8,22.5,98.5,22.3 M90.9,16.5c-0.2,0.3-0.2,0.5-0.2,0.8l0,1.7h5.8c1.2,0,1.7-0.5,1.7-1.6     c0-0.3-0.1-0.8-0.4-1l-0.9-0.9c-0.2-0.2-0.5-0.4-0.7-0.4h-3.5c-0.2,0-0.4,0.1-0.6,0.3L90.9,16.5z"></path>
&#x9;&#x9;&#x9;<path class="st1" d="M111.1,13.1c2.8,0,4.7,2,4.7,4.6l0,9.1c0,0.3-0.1,0.3-0.3,0.3h-1.4c-0.3,0-0.4-0.2-0.4-0.4l0-3h-7.9l0,3.1     c0,0.3-0.1,0.3-0.3,0.3h-1.3c-0.3,0-0.4-0.2-0.4-0.4l0-10.1c0-0.4,0.1-0.9,0.5-1.3l1.8-1.7c0.4-0.4,0.8-0.4,1.2-0.4H111.1z      M113.7,18c0-1.7-0.9-2.9-2.9-2.9H108c-0.2,0-0.5,0.1-0.7,0.4l-1.2,1.2c-0.3,0.3-0.4,0.6-0.3,0.8l0,4.1h7.9L113.7,18z"></path>
&#x9;&#x9;&#x9;<path class="st1" d="M126.9,19.9c1.5,0.5,2.9,1.4,2.9,3.8c0,1.9-1.6,3.5-3.9,3.5h-5.4c-0.4,0-0.9-0.2-1.3-0.6l-0.6-0.6     c-0.2-0.2-0.3-0.3-0.1-0.5l1.1-1.1c0.2-0.2,0.3-0.1,0.5,0.1l0.3,0.3c0.3,0.2,0.5,0.3,0.8,0.3h4.2c1.4,0,2.1-0.9,2.1-1.9     c0-0.8-0.9-1.3-1.9-1.7l-4-1.1c-2-0.8-3.1-1.5-3.1-3.9c0-1.8,1.5-3.4,3.8-3.4h5.2c0.4,0,0.9,0.2,1.3,0.6l0.6,0.6     c0.2,0.2,0.3,0.3,0.1,0.5l-1.1,1.1c-0.2,0.2-0.3,0.1-0.5-0.1l-0.3-0.3c-0.3-0.2-0.5-0.3-0.8-0.3h-4.1c-1.4,0-2,0.9-2,1.8     c0,0.8,0.7,1.2,2,1.8L126.9,19.9z"></path>
&#x9;&#x9;&#x9;<path class="st1" d="M142.9,17.9c0,0.4-0.1,0.9-0.5,1.3l-1,1l3,6.5c0.1,0.2,0.1,0.4-0.2,0.4h-1.4c-0.3,0-0.5-0.3-0.6-0.4     l-2.7-5.7h-4.7l0,5.8c0,0.3-0.1,0.3-0.3,0.3h-1.3c-0.3,0-0.4-0.2-0.4-0.4l0-13.2c0-0.2,0.1-0.3,0.3-0.3h1.3     c0.3,0,0.4,0.2,0.4,0.4l0,5.3h4.3c0.2,0,0.5-0.1,0.7-0.4l0.7-0.6c0.2-0.3,0.3-0.6,0.3-0.9l0-3.6c0-0.3,0.1-0.3,0.3-0.3h1.4     c0.3,0,0.4,0.2,0.4,0.4L142.9,17.9z"></path>
&#x9;&#x9;&#x9;<path class="st1" d="M156.5,13.1c0.2,0,0.5,0.2,0.4,0.4l0,1.3c0,0.3-0.1,0.3-0.3,0.3h-5.1c-0.2,0-0.4,0.1-0.7,0.4l-1.2,1.2     c-0.3,0.3-0.4,0.6-0.3,0.8l0,1.5h5.9c0.3,0,0.5,0.2,0.5,0.4l0,1.3c0,0.3-0.1,0.3-0.3,0.3h-6.1l0,3.5c0,0.4,0.1,0.5,0.5,0.5h6.7     c0.2,0,0.5,0.2,0.5,0.4l0,1.3c0,0.3-0.1,0.3-0.3,0.3h-7.8c-1.1,0-1.6-0.7-1.6-1.6l0-8.9c0-0.4,0.1-0.9,0.5-1.3l1.8-1.7     c0.4-0.4,0.8-0.4,1.2-0.4H156.5z"></path>
&#x9;&#x9;&#x9;<path class="st1" d="M169.5,13.1c0.2,0,0.5,0.2,0.4,0.4l0,1.3c0,0.3-0.1,0.3-0.3,0.3h-4.2l0,11.6c0,0.3-0.1,0.3-0.3,0.3h-1.3     c-0.3,0-0.4-0.2-0.4-0.4l0-11.5h-4.1c-0.3,0-0.4-0.2-0.5-0.4l0-1.3c0-0.3,0.1-0.3,0.4-0.3H169.5z"></path>
&#x9;&#x9;&#x9;<path class="st1" d="M182.8,15.1c0.4,0.4,0.5,0.9,0.5,1.3v1.2c0,1-0.3,1.8-0.9,2.4l0.9,0.9c0.4,0.4,0.5,0.9,0.5,1.3l0,1.2     c0,2.1-1,3.5-4,3.5h-6.8c-1.1,0-1.5-0.5-1.5-1.4l0-9c0-0.4,0.2-0.9,0.6-1.4l1.8-1.7c0.4-0.4,0.9-0.5,1.2-0.5h4.6     c0.4,0,0.9,0.1,1.3,0.4L182.8,15.1z M181.6,22.3l-1-1c-0.2-0.2-0.5-0.3-1-0.3h-5.8l0,3.4c0,0.4,0.2,0.6,0.7,0.6l5.2,0     c1.7,0,2.2-0.6,2.2-1.7C181.8,23,181.8,22.5,181.6,22.3 M174,16.5c-0.2,0.3-0.2,0.5-0.2,0.8l0,1.7h5.8c1.2,0,1.7-0.5,1.7-1.6     c0-0.3-0.1-0.8-0.4-1l-0.9-0.9c-0.2-0.2-0.5-0.4-0.7-0.4h-3.5c-0.2,0-0.4,0.1-0.6,0.3L174,16.5z"></path>
&#x9;&#x9;&#x9;<path class="st1" d="M194.1,13.1c2.8,0,4.7,2,4.7,4.6l0,9.1c0,0.3-0.1,0.3-0.3,0.3h-1.4c-0.3,0-0.4-0.2-0.4-0.4l0-3h-7.9l0,3.1     c0,0.3-0.1,0.3-0.3,0.3h-1.3c-0.3,0-0.4-0.2-0.5-0.4l0-10.1c0-0.4,0.1-0.9,0.5-1.3l1.8-1.7c0.4-0.4,0.8-0.4,1.2-0.4H194.1z      M196.7,18c0-1.7-0.9-2.9-2.9-2.9H191c-0.2,0-0.5,0.1-0.7,0.4l-1.2,1.2c-0.3,0.3-0.4,0.6-0.3,0.8l0,4.1h7.9L196.7,18z"></path>
&#x9;&#x9;&#x9;<path class="st1" d="M202,13.4c0-0.3,0.1-0.3,0.3-0.3h1.3c0.3,0,0.4,0.2,0.4,0.4l0,11c0,0.4,0.1,0.5,0.5,0.5h7.4     c0.2,0,0.5,0.2,0.5,0.4l0,1.3c0,0.3-0.1,0.3-0.3,0.3h-8.5c-1.1,0-1.6-0.7-1.6-1.6L202,13.4z"></path>
&#x9;&#x9;&#x9;<path class="st1" d="M215.1,13.4c0-0.3,0.1-0.3,0.3-0.3h1.3c0.3,0,0.4,0.2,0.4,0.4l0,11c0,0.4,0.1,0.5,0.5,0.5h7.4     c0.2,0,0.5,0.2,0.5,0.4l0,1.3c0,0.3-0.1,0.3-0.3,0.3h-8.5c-1.1,0-1.6-0.7-1.6-1.6L215.1,13.4z"></path>
&#x9;&#x9;</g>
&#x9;&#x9;<g>
&#x9;&#x9;&#x9;<g>
&#x9;&#x9;&#x9;&#x9;<path class="st1" d="M237.5,13.1c0.1,0,0.1,0,0.1,0.1v0.3c0,0.1,0,0.1-0.1,0.1h-1.1v4c0,0.1,0,0.1-0.1,0.1h-0.4      c-0.1,0-0.1,0-0.1-0.1v-4h-1.1c-0.1,0-0.1,0-0.1-0.1v-0.3c0-0.1,0-0.1,0.1-0.1H237.5z"></path>
&#x9;&#x9;&#x9;&#x9;<path class="st1" d="M242.3,17.6c0,0.1,0,0.1-0.1,0.1h-0.4c-0.1,0-0.1,0-0.1-0.1v-3.2c0,0-0.1,0.4-0.2,0.5l-0.8,1.9      c0,0.1-0.1,0.1-0.2,0.1h-0.4c-0.1,0-0.1-0.1-0.2-0.1l-0.9-2c-0.1-0.2-0.1-0.4-0.1-0.4v3.2c0,0.1,0,0.1-0.1,0.1h-0.4      c-0.1,0-0.1,0-0.1-0.1v-4.5c0-0.1,0-0.1,0.1-0.1h0.4c0.1,0,0.1,0,0.1,0.1l1.2,2.8c0,0.1,0.1,0.4,0.1,0.4c0,0,0.1-0.3,0.2-0.4      l1.2-2.8c0,0,0.1-0.1,0.1-0.1h0.4c0.1,0,0.1,0,0.1,0.1V17.6z"></path>
&#x9;&#x9;&#x9;</g>
&#x9;&#x9;</g>
&#x9;</g>
</g>
</svg>