<?xml version="1.0"?>
<svg viewBox="0 0 841.89 595.28" xmlns="http://www.w3.org/2000/svg">
  <defs>
    
  </defs>
  <path class="cls-1" d="M 257.883 530.987 C 125.371 530.987 17.559 424.203 17.559 292.952 C 17.559 161.699 125.371 54.916 257.883 54.916 C 303.93 54.916 348.552 67.827 387.166 92.281 L 786.242 92.084 C 794.609 92.084 802.425 95.354 808.251 101.306 C 813.838 107.008 816.899 114.512 816.899 122.435 C 816.899 172.808 816.815 219.228 816.742 224.398 L 816.742 390.555 C 816.742 390.555 816.941 462.742 816.941 462.742 L 816.941 463.202 C 816.292 480.376 802.211 493.832 784.874 493.832 L 387.18 493.636 C 348.567 518.089 303.945 531.001 257.897 531.001 L 257.883 530.987 Z" style=""></path>
  <path class="cls-6" d="M 804.922 462.756 C 804.526 473.515 795.71 481.926 784.859 481.926 L 374.201 481.732 L 369.122 459.039 C 433.721 430.253 475.465 365.026 475.465 292.854 C 475.465 220.682 433.848 155.664 369.446 126.822 L 374.554 104.143 L 786.271 103.948 C 791.364 103.948 796.118 105.946 799.659 109.565 C 803.059 113.044 804.922 117.6 804.922 122.421 C 804.922 172.668 804.835 219.787 804.766 224.3 L 804.766 390.555 C 804.766 390.555 804.964 462.532 804.964 462.532 L 804.964 462.756 L 804.922 462.756 Z" style=""></path>
  <path class="cls-4" d="M 524.757 115.979 L 374.539 116.049 C 441.14 145.882 487.668 213.82 487.668 292.882 C 487.668 371.943 440.986 440.119 374.201 469.867 L 524.757 469.937 L 784.859 470.063 C 789.093 470.063 792.549 466.682 792.717 462.35 L 792.535 390.569 L 792.535 224.204 C 792.591 221.198 792.676 177.043 792.676 122.435 C 792.676 120.06 791.491 118.494 790.785 117.783 C 790.08 117.069 788.557 115.853 786.242 115.853 L 524.744 115.979 L 524.757 115.979 Z" style=""></path>
  <g style="" transform="matrix(1.4107639789581299, 0, 0, 1.3973339796066284, -183.7701873779297, -122.95118713378906)">
    <rect class="cls-4" x="476.74" y="192.09" width="213.14" height="211.09" rx="26.74" ry="26.74"></rect>
    <g>
      <path class="cls-5" d="M583.29,384.37c-47.67,0-74.89-7.64-84.45-23.6-2.64-4.41-2.9-9.81-2.9-9.81l.04-93.41s-.04-.82-.07-2.01v-4.69c.03-.82.08-1.59.16-2.22,2.54-19.89,32.23-39.6,87.21-39.6,54.98,0,84.68,19.71,87.22,39.6.38,2.94.09,8.93.09,8.93l.04,93.41s-.26,5.4-2.9,9.81c-9.56,15.96-36.77,23.6-84.45,23.6"></path>
      <path class="cls-5" d="M657.43,377.27c.67,0,1.27-.05,1.27-.85,0-.65-.59-.77-1.14-.77h-1.08v1.62h.95ZM656.48,380.2h-.79s0-5.22,0-5.22h1.99c1.23,0,1.84.46,1.84,1.49,0,.93-.59,1.34-1.35,1.44l1.49,2.3h-.89s-1.38-2.26-1.38-2.26h-.91v2.26ZM657.49,381.45c2.05,0,3.67-1.61,3.67-3.79,0-2.14-1.62-3.76-3.67-3.76-2.07,0-3.69,1.62-3.69,3.76,0,2.18,1.62,3.79,3.69,3.79M652.89,377.66c0-2.6,2.11-4.52,4.6-4.52s4.58,1.92,4.58,4.52c0,2.63-2.11,4.54-4.58,4.54-2.49,0-4.6-1.92-4.6-4.54"></path>
      <path class="cls-3" d="M583,379c51.15,0,77.05-8.99,81.7-26.15.77-3.14-1.77-4.09-4.32-4.09h-77.38s-77.38,0-77.38,0c-2.55,0-5.09.95-4.32,4.09,4.65,17.16,30.55,26.15,81.7,26.15"></path>
      <path class="cls-3" d="M583.05,214.39c-51.15,0-78.41,17.56-81.7,35.22-.77,4.06,1.77,5.45,4.32,5.45s77.38,0,77.38,0h77.38c2.55,0,5.09-1.39,4.32-5.45-3.29-17.66-30.55-35.22-81.7-35.22"></path>
      <path class="cls-4" d="M649.14,270.79l-3.25-5.16c-.95-1.79-4.01-2.12-5.62-1.53-2.11.77-3.13,3.07-2.18,4.85l6.41,10.47c.48.83.7,1.31.69,2.14v7.56c0,2.13,2.59,3.14,4.36,3.14s4.36-1.01,4.36-3.14v-7.56c0-.84.06-1.21.68-2.12l6.43-10.5c.95-1.79-.11-4.04-2.18-4.85-1.59-.64-4.66-.26-5.61,1.53l-3.27,5.13c-.27.45-.56.45-.83.04M629.45,306.36c-1.27.81-.02,2.49,1.03,2.4,1.16-.09,5.86-4.22,4.02-8.33-.48-1.06-1.52-1.86-2.81-1.86-1.66,0-3,1.29-3,2.89.06,1.97,1.19,2.55,1.57,2.7.38.14.28.43.24.61-.24.69-.41.98-1.05,1.58M646.81,340.21c-5.52,0-8.81-1.02-11.53-3.54-2.14-2.11-1.24-4.69-.41-5.98.83-1.28,2.69-3.27,6.06-1.57,3,1.51,3.38,1.16,4.79,1.16,2.1,0,3.05-1.61,3.05-3.33s-1.52-2.32-2.64-2.58l-2.47-.5c-4.8-.96-9.59-4.6-9.58-10.05.02-8.99,5.6-15.05,14.67-15.05h0c4.92,0,7.26.77,10.07,3.54,2.13,2.12,1.24,4.63.4,5.91-.84,1.28-2.73,3.34-6.07,1.56-2.47-1.32-2.94-1.14-4.09-1.14-1.81,0-2.74,1.28-2.74,2.84,0,1.41,1.57,2.1,2.51,2.35l2.78.7c5.2,1.31,9.72,5.01,9.78,11.44.07,8.27-4.54,14.24-14.58,14.24M626.67,307.38l-8.18,9.97s-1.68,1.74-.37,3.47c1.46,1.92,7.96,9.52,7.96,9.52,0,0,4.33,4.12-.12,8.03-4.46,3.89-6.98.54-6.98.54l-10.59-12.79s-1.08-1.04-1.08.86l.02-.12v8.88c0,3.11-3.4,4.58-5.73,4.58s-5.73-1.47-5.73-4.58v-32.34c0-3.11,3.4-4.58,5.73-4.58s5.73,1.47,5.73,4.58v8.78s-.02-.12-.02-.12c0,1.09.68,1.14,1.15.51l9.53-11.43c2.13-2.73,5.31-2.8,7.89-.6,2.29,1.95,2.76,4.37.78,6.83M516.73,340.13c8.8,0,11.31-5.61,11.31-11.63l.04-.64v-24.76c0-3.1-3.39-4.57-5.72-4.57s-5.71,1.47-5.71,4.57v23.32c.25,3.71-2.15,4.66-3.07,1.92-1.32-3.29-4.63-2.57-5.9-1.92-1.27.65-3.09,2.33-2.33,5.52,1.35,4.87,4.78,8.14,11.37,8.19M548.21,325.11h-3.8c-.35,0-.65-.24-.47-.68l1.86-6.04c.2-.88.94-.98,1.2-.02l1.86,6.05c.19.56,0,.68-.65.68M551.95,334.28l.56,1.85c.63,2.71,4.25,4.26,6.35,3.89,2.34-.41,5.02-3.03,4.04-6.03l-9.72-31.27c-.9-3.12-4.56-4.02-6.78-4.09-2.22.07-5.91,1.03-6.78,4.09l-9.72,31.27c-.98,3,1.7,5.62,4.04,6.03,2.1.38,5.71-1.18,6.35-3.89l.56-1.85c.15-.58.41-.71.91-.71h9.34c.67,0,.72.27.86.71M573.91,319.54c0,5.55,2.12,10.51,8.18,10.51,1.63,0,1.84-.21,3.89-1.16,3.62-1.68,5.55.29,6.43,1.63.88,1.34,1.84,4.06-.43,6.27-2.28,2.33-5.53,3.7-10.48,3.7-11.44,0-19.38-8.6-19.38-21,0-12.4,7.94-21,19.38-21,4.84,0,7.94,1.11,10.48,3.7,2.27,2.21,1.31,4.9.43,6.24-.89,1.34-2.82,3.32-6.43,1.63-1.84-.86-2.19-1.17-3.89-1.17-6.06,0-8.19,5.09-8.19,10.64h.01ZM515.12,281.75c-.54,0-1.03.19-1.03.88v6.46c0,2.13-2.59,3.14-4.36,3.14s-4.36-1.01-4.36-3.14v-22.15c0-2.13,2.59-3.14,4.36-3.14s4.36,1.01,4.36,3.14v5.92c0,.65.46.91.96.91h4.45c.58,0,.96-.25.96-.91v-5.92c0-2.13,2.59-3.14,4.36-3.14s4.36,1.01,4.36,3.14v22.15c0,2.13-2.59,3.14-4.36,3.14s-4.36-1.01-4.36-3.14v-6.46c0-.69-.45-.88-1-.88h-4.35ZM602.53,281.7c-3.16,0-3.68-2.15-3.68-3.73,0-1.58.67-3.6,3.75-3.6h6.16c2.18,0,3.52.84,3.52,2.93v7.92c0,4.54-5.78,7.01-12.16,7.01-8.23,0-14.69-4.56-14.69-14.64,0-8.56,6.06-14.49,14.77-14.49,4.46,0,7.85.95,10.2,3,1.73,1.53,1,3.55.33,4.48-.68.93-2.18,2.35-4.9,1.13-2.73-1.23-3.53-1.25-5.18-1.25-4.62,0-6.23,3.42-6.23,7.24,0,3.83,1.99,6.98,5.48,6.98,2.85,0,3.85-.88,3.75-2.36,0-.56-.26-.63-1.12-.63M625.19,275.69c1.71,0,3.15-1.15,3.15-3.05s-.6-3.1-3.3-3.1c-1,0-1.25.2-1.56.61v5.03c0,.54.61.51,1.71.51M633.16,279.79c-.4.3-.35.54-.16.81l4.74,6.17c1.24,1.61.05,3.86-1.56,4.87-1.45.91-4.55,1.04-5.79-.56l-6.05-7.85c-.34-.41-.83-.25-.83.3v5.81c0,2.05-2.53,2.94-4.25,2.94s-4.26-.88-4.26-2.94v-22.45c0-2.05,2.21-3.14,4.26-3.14h8.04c7.16,0,9.61,5.52,9.61,8.42,0,2.6-.76,5.59-3.73,7.62M543.27,292.34c5.22,0,11.2-3.39,11.2-8.22v-17.62c0-2.09-2.54-2.99-4.28-2.99s-4.27.9-4.27,2.99v15.91c0,1.16-1.39,1.83-2.65,1.83s-2.65-.67-2.65-1.83v-15.91c0-2.09-2.54-2.99-4.28-2.99s-4.28.9-4.28,2.99v17.62c0,4.83,5.99,8.22,11.2,8.22M565.94,280.64v8.36c0,1.9-2.61,3.2-4.4,3.2s-4.41-1.03-4.41-3.2v-22.44c0-2.17,2.62-3.36,4.41-3.36,2.27,0,3.63,1.27,4.69,2.65l7,8.82c.55.7,1.35.81,1.35.19v-8.29c0-2.17,2.61-3.36,4.4-3.36s4.4,1.19,4.4,3.36v22.44c0,2.16-2.61,3.2-4.4,3.2-1.54,0-2.56-.03-4.42-2.31-1.85-2.28-7.43-9.25-7.43-9.25-.38-.49-1.2-.61-1.2,0"></path>
    </g>
  </g>
  <g style="" transform="matrix(1.4107639789581299, 0, 0, 1.3973339796066284, -183.7701873779297, -122.95118713378906)">
    <circle class="cls-6" cx="313.06" cy="297.64" r="161.85"></circle>
    <g>
      <path class="cls-6" d="M459.9,297.62c0-79.76-64.36-144.75-143.87-145.81-.89.01-1.79.02-2.68.04l-4.75.07-2.42.29c-75.83,5.66-136.01,66.79-137.9,141.78-.03,1.12-.04,2.25-.04,3.38,0,.08,0,.16,0,.24,0,.09,0,.17,0,.26,0,1.12.02,2.24.04,3.36,1.79,71.47,56.52,130.72,127.28,141.04,6.06.77,12.24,1.17,18.5,1.17,80.41,0,145.83-65.42,145.83-145.83Z"></path>
      <path class="cls-2" d="M313.06,409.53c-56.41,0-105.7-22.92-131.73-56.83,21.59,51.48,72.51,87.73,131.73,87.73,59.23,0,110.14-36.25,131.74-87.73-26.04,33.9-75.34,56.83-131.74,56.83"></path>
      <path class="cls-2" d="M181.33,242.58c26.04-33.91,75.33-56.83,131.73-56.83,56.4,0,105.7,22.92,131.74,56.83-21.59-51.48-72.51-87.74-131.74-87.74-59.23,0-110.14,36.26-131.73,87.74"></path>
      <path class="cls-5" d="M464.29,297.64c0-83.39-67.84-151.23-151.23-151.23-83.39,0-151.23,67.84-151.23,151.23,0,83.39,67.84,151.22,151.23,151.22,83.39,0,151.23-67.84,151.23-151.22M181.33,352.7c26.04,33.89,75.33,56.82,131.74,56.82,56.4,0,105.7-22.93,131.73-56.82-21.59,51.47-72.51,87.73-131.73,87.73-59.23,0-110.14-36.26-131.74-87.73M444.8,242.58c-26.04-33.9-75.33-56.83-131.73-56.83-56.41,0-105.7,22.93-131.74,56.83,21.59-51.48,72.51-87.74,131.74-87.74,59.23,0,110.14,36.26,131.73,87.74M455.65,292.18h-65.48s0,8.59,0,8.59h65.57c-2.29,55.51-65.39,100.18-142.68,100.18-77.28,0-140.37-44.65-142.68-100.16h48.49s0-8.59,0-8.59h-48.4c3.93-54.44,66.38-97.86,142.6-97.86,76.2,0,138.65,43.41,142.59,97.84"></path>
      <polygon class="cls-5" points="247.63 291.45 247.63 354.94 226.3 354.94 226.3 237.3 250.8 237.3 265.29 301.12 265.29 237.3 287.29 237.3 287.29 354.94 261.79 354.94 247.63 291.45"></polygon>
      <path class="cls-5" d="M350.94,333.28c0,15.67-6.5,21.67-20.16,21.67h-35s0-117.65,0-117.65h35c13.66,0,20.16,6,20.16,21.66v13.34c0,13.66-4,19.66-13.16,21.33,9.17,1.5,13.16,7.67,13.16,21.16v18.5ZM327.12,258.96c0-2.83-1.83-4.33-3.67-4.33h-4s0,30.33,0,30.33h3.83c1.83,0,3.84-1.5,3.84-4.17v-21.83ZM327.12,306.78c0-2.67-2-4.17-3.84-4.17h-3.83s0,35,0,35h4c1.83,0,3.67-1.5,3.67-4.34v-26.49Z"></path>
      <polygon class="cls-5" points="358.99 237.3 382.65 237.3 382.65 336.61 399.82 336.61 399.82 354.94 358.99 354.94 358.99 237.3"></polygon>
    </g>
  </g>
</svg>