<svg xmlns="http://www.w3.org/2000/svg" viewBox="0 0 1200 601"><g fill="none" stroke-width="2"><path stroke="#866a46" d="M592.04 15.5q3.77 5.39 7.86 10.58c6.01 7.65 5.61 22.19 2.98 30.65a.98.96-3.6 0 1-.55.61q-4.65 2.06-5.98 6.58a1.01 1 27.8 0 0 .33 1.05q5.59 4.57 12.38 6.57 6.31 1.86 7.67 2.48c12.2 5.61 22.77 16.59 29.35 28.04q3.43 5.98 5.92 14.94 9.07 32.66 10.12 66.67a1 .99-68.5 0 0 .29.68c6.99 6.92 8.22 13.65 10.27 24.46 3.25 17.1 5.08 38.74 1.29 56.52-1 4.69-4.2 7.32-5.06 12.66q-.92 5.79-2.64 11.45a.96.93 78.7 0 1-.29.45q-7.52 6.76-9.8 11.05c-1.5 2.83-2.02 6.91-4.51 10.5q-5.69 8.2-8.88 17.69c-1.45 4.31-4.25 7.66-6.58 11.46a1.02 1.01 49.6 0 0-.07.92c2.86 6.61 13.27 12.23 13.12 19.77q-.17 8.59 4.77 15.03c3.66 4.77 7.66 14.81 4.68 20.61q-5.35 10.42-5.76 12.81c-1.1 6.42-1.89 12.41-4.69 18.34-5.57 11.79-10.26 17.6-20.05 28.11a1.02.99-67.9 0 1-.73.32h-6.88a.99.97-16.9 0 1-.81-.42l-4.1-5.79a1 .94-64.4 0 1-.18-.57c-.07-7.02-.42-13.59 1.13-20.59 2.03-9.2 3.44-18.54 5.86-27.64 1.22-4.59-.39-14.08-4.11-17.34-2.02-1.78-4-3.36-5.79-5.34-4.82-5.37-17.67-17-18.44-23.95q-1.74-15.6-1.1-24.29c.93-12.63 6.8-30 4.83-43.98q-1.01-7.12-8.12-5.38a1.05 1.02 8.9 0 0-.62.44c-3.68 5.91-9.86 11.71-17.33 19.5-2.94 3.06-6.12 5.64-9.36 8.32-2.17 1.79-4.67 2.1-7.24 3.09a1.02.98 5.9 0 0-.45.35c-3.19 4.48-4.53 9.64-7.54 13.78q-5.94 8.17-12.99 15.45a1.02 1 66.3 0 0-.28.75q.32 5.46.77 10.94c.22 2.73-2.16 4.63-2.3 7.68-.17 3.62-.26 6.84-1.18 10.47-1.03 4.05-1.37 10.17-3.77 13.48q-4.58 6.3-7.73 13.42c-3.73 8.43-10.46 16.48-15.33 24.44a.96.96 0 0 0-.14.5q-.09 4.64-.26 9.3c-.11 2.86-1.67 4.42-3.17 6.65a1 .93 65 0 0-.17.52l-1.83 46.47a1.07 1.03 66.9 0 1-.23.6l-6.12 7.38q-.17.2-.42.29l-3.83 1.43" vector-effect="non-scaling-stroke"></path><path stroke="#e45d1c" d="M448.25 496.46q-.53-2.44.54-3.68 4.59-5.32 7.96-11.46c2.34-4.28 6.26-6.56 8.09-11.15 3.08-7.73 5.16-14.8 9.44-22.89q1.5-2.84 2.02-5.87c4.59-26.64 9.47-53.36 12.79-80.19 1.06-8.59 6.2-19.48 10.37-27.06q1.21-2.2 1.43-4.76c.55-6.33.72-12.6 2.43-18.63 2.44-8.64 5.07-17.4 10.09-25.05 8.54-13.01 16.89-26.11 25.96-38.8q13.65-19.1 27.24-38.25c1.27-1.79 1.31-3.67 1.76-5.75a1.01.98 37.6 0 0-.1-.69c-4.85-8.94-16.61 6.16-21.26 10.92-2.88 2.95-6.46 5.1-9.67 7.9a1.01.99 24.8 0 1-.68.24c-.51-.01-15.83.79-9.31-3.51a1.01 1-19.3 0 0 .45-.92l-.26-2.88a.99.99 0 0 0-1.2-.89l-1.54.34a1.01.97-78.3 0 0-.63.43q-2.09 3.19-5.83 1.75a1.01 1.01 0 0 1-.62-.74q-.85-4.31 1.68-7.24 5.12-5.93 7.36-10.2a1.03 1-1.5 0 1 .41-.42q6.36-3.45 5-10.7a1 .99 89.1 0 0-.82-.8l-1.85-.29a.99.98-58.8 0 0-.76.19q-3.05 2.33-6.81 3.16a.98.96 52.2 0 1-.67-.09c-5.45-2.79 6.09-10.01 8.8-11.33 4.92-2.38 13.54-1.73 19.09-2.13 3.7-.26 6.44-2.17 9.52-3.95a1.01 1.01 0 0 0 .42-.48q2.44-5.77-.37-11.04a1.02 1.01-7.7 0 0-.68-.51q-3.9-.84-5.29 2.46a1.05 1.05 0 0 1-.48.51c-2.36 1.19-4.29 2.25-7.01 2.83-4.6.98-8.77 3.03-13.39 3.44q-8.7.78-11.57 2.01-2.23.95-11.88 8.4a1 1 0 0 0-.25 1.3q7.04 11.87 5.05 25.32-.59 4-2.83 7.38c-6.96 10.46-17.27 15.3-29.31 17.73q-3.21.65-6.2-.03-18.4-4.18-27.23-20.77-1.32-2.47-1.57-5.67-1.23-15.4-1-18.45.54-7.08 1.38-9.04 3.65-8.52 11.96-11.98c3.3-1.37 4.49-4.35 7.3-6.04 6.24-3.75 17.73.27 25.74-1.33 6.62-1.31 11.13-3.01 16.82-7.26 8.43-6.29 17.56-12.15 24.94-19.66a1.07 1.02-19.7 0 0 .28-.56c1.57-11.25.36-22.71 3.66-33.29 1.18-3.77 1.79-7.76 4.41-10.77q3.08-3.55 6.88-6.35 1.78-1.32.52-3.18l-5.78-8.56a1.1 1.05-64.7 0 1-.17-.51q-1.16-19.64 1.96-34.99 1.77-8.67 9.27-16.44" vector-effect="non-scaling-stroke"></path></g><path fill="#ca0000" d="M208.83 15.56c35.78 4.28 68.06 13.06 97.9 34.95q18.21 13.36 28.71 26.3 7.5 9.25 17.62 27.18 11.91 21.1 18.99 44.15c12.88 41.93 4.13 86.14-12.12 126.84-3.47 8.71-7 14.45-12.82 22.73q-29.48 41.93-76.71 61.52c-24.82 10.29-51.17 17.88-77.62 22.64a1.01 1 85.1 0 0-.82.98l-1.22 112.53a1 1 0 0 1-1.01.99L28.49 495.2a1 .99 90 0 1-.99-1V15.3a1 1 0 0 1 1-1q83.64-.11 167.17-.02 2.52.01 13.16 1.28Z"></path><path fill="#0f1954" d="M717.98 497.04 946.34 14.9a.32.32 0 0 1 .58 0l223.61 482.15a.32.32 0 0 1-.29.45H718.27a.32.32 0 0 1-.29-.46Z"></path><path fill="#fdba38" d="M592.04 15.5q3.77 5.39 7.86 10.58c6.01 7.65 5.61 22.19 2.98 30.65a.98.96-3.6 0 1-.55.61q-4.65 2.06-5.98 6.58a1.01 1 27.8 0 0 .33 1.05q5.59 4.57 12.38 6.57 6.31 1.86 7.67 2.48c12.2 5.61 22.77 16.59 29.35 28.04q3.43 5.98 5.92 14.94 9.07 32.66 10.12 66.67a1 .99-68.5 0 0 .29.68c6.99 6.92 8.22 13.65 10.27 24.46 3.25 17.1 5.08 38.74 1.29 56.52-1 4.69-4.2 7.32-5.06 12.66q-.92 5.79-2.64 11.45a.96.93 78.7 0 1-.29.45q-7.52 6.76-9.8 11.05c-1.5 2.83-2.02 6.91-4.51 10.5q-5.69 8.2-8.88 17.69c-1.45 4.31-4.25 7.66-6.58 11.46a1.02 1.01 49.6 0 0-.07.92c2.86 6.61 13.27 12.23 13.12 19.77q-.17 8.59 4.77 15.03c3.66 4.77 7.66 14.81 4.68 20.61q-5.35 10.42-5.76 12.81c-1.1 6.42-1.89 12.41-4.69 18.34-5.57 11.79-10.26 17.6-20.05 28.11a1.02.99-67.9 0 1-.73.32h-6.88a.99.97-16.9 0 1-.81-.42l-4.1-5.79a1 .94-64.4 0 1-.18-.57c-.07-7.02-.42-13.59 1.13-20.59 2.03-9.2 3.44-18.54 5.86-27.64 1.22-4.59-.39-14.08-4.11-17.34-2.02-1.78-4-3.36-5.79-5.34-4.82-5.37-17.67-17-18.44-23.95q-1.74-15.6-1.1-24.29c.93-12.63 6.8-30 4.83-43.98q-1.01-7.12-8.12-5.38a1.05 1.02 8.9 0 0-.62.44c-3.68 5.91-9.86 11.71-17.33 19.5-2.94 3.06-6.12 5.64-9.36 8.32-2.17 1.79-4.67 2.1-7.24 3.09a1.02.98 5.9 0 0-.45.35c-3.19 4.48-4.53 9.64-7.54 13.78q-5.94 8.17-12.99 15.45a1.02 1 66.3 0 0-.28.75q.32 5.46.77 10.94c.22 2.73-2.16 4.63-2.3 7.68-.17 3.62-.26 6.84-1.18 10.47-1.03 4.05-1.37 10.17-3.77 13.48q-4.58 6.3-7.73 13.42c-3.73 8.43-10.46 16.48-15.33 24.44a.96.96 0 0 0-.14.5q-.09 4.64-.26 9.3c-.11 2.86-1.67 4.42-3.17 6.65a1 .93 65 0 0-.17.52l-1.83 46.47a1.07 1.03 66.9 0 1-.23.6l-6.12 7.38q-.17.2-.42.29l-3.83 1.43h-40q-.53-2.44.54-3.68 4.59-5.32 7.96-11.46c2.34-4.28 6.26-6.56 8.09-11.15 3.08-7.73 5.16-14.8 9.44-22.89q1.5-2.84 2.02-5.87c4.59-26.64 9.47-53.36 12.79-80.19 1.06-8.59 6.2-19.48 10.37-27.06q1.21-2.2 1.43-4.76c.55-6.33.72-12.6 2.43-18.63 2.44-8.64 5.07-17.4 10.09-25.05 8.54-13.01 16.89-26.11 25.96-38.8q13.65-19.1 27.24-38.25c1.27-1.79 1.31-3.67 1.76-5.75a1.01.98 37.6 0 0-.1-.69c-4.85-8.94-16.61 6.16-21.26 10.92-2.88 2.95-6.46 5.1-9.67 7.9a1.01.99 24.8 0 1-.68.24c-.51-.01-15.83.79-9.31-3.51a1.01 1-19.3 0 0 .45-.92l-.26-2.88a.99.99 0 0 0-1.2-.89l-1.54.34a1.01.97-78.3 0 0-.63.43q-2.09 3.19-5.83 1.75a1.01 1.01 0 0 1-.62-.74q-.85-4.31 1.68-7.24 5.12-5.93 7.36-10.2a1.03 1-1.5 0 1 .41-.42q6.36-3.45 5-10.7a1 .99 89.1 0 0-.82-.8l-1.85-.29a.99.98-58.8 0 0-.76.19q-3.05 2.33-6.81 3.16a.98.96 52.2 0 1-.67-.09c-5.45-2.79 6.09-10.01 8.8-11.33 4.92-2.38 13.54-1.73 19.09-2.13 3.7-.26 6.44-2.17 9.52-3.95a1.01 1.01 0 0 0 .42-.48q2.44-5.77-.37-11.04a1.02 1.01-7.7 0 0-.68-.51q-3.9-.84-5.29 2.46a1.05 1.05 0 0 1-.48.51c-2.36 1.19-4.29 2.25-7.01 2.83-4.6.98-8.77 3.03-13.39 3.44q-8.7.78-11.57 2.01-2.23.95-11.88 8.4a1 1 0 0 0-.25 1.3q7.04 11.87 5.05 25.32-.59 4-2.83 7.38c-6.96 10.46-17.27 15.3-29.31 17.73q-3.21.65-6.2-.03-18.4-4.18-27.23-20.77-1.32-2.47-1.57-5.67-1.23-15.4-1-18.45.54-7.08 1.38-9.04 3.65-8.52 11.96-11.98c3.3-1.37 4.49-4.35 7.3-6.04 6.24-3.75 17.73.27 25.74-1.33 6.62-1.31 11.13-3.01 16.82-7.26 8.43-6.29 17.56-12.15 24.94-19.66a1.07 1.02-19.7 0 0 .28-.56c1.57-11.25.36-22.71 3.66-33.29 1.18-3.77 1.79-7.76 4.41-10.77q3.08-3.55 6.88-6.35 1.78-1.32.52-3.18l-5.78-8.56a1.1 1.05-64.7 0 1-.17-.51q-1.16-19.64 1.96-34.99 1.77-8.67 9.27-16.44 6.17-.46 12.34-.33c8.9.2 16.98-.18 25.45.29Z"></path><path fill="#ca0000" d="M554.25 15.54q-7.5 7.77-9.27 16.44-3.12 15.35-1.96 34.99a1.1 1.05-64.7 0 0 .17.51l5.78 8.56q1.26 1.86-.52 3.18-3.8 2.8-6.88 6.35c-2.62 3.01-3.23 7-4.41 10.77-3.3 10.58-2.09 22.04-3.66 33.29a1.07 1.02-19.7 0 1-.28.56c-7.38 7.51-16.51 13.37-24.94 19.66-5.69 4.25-10.2 5.95-16.82 7.26-8.01 1.6-19.5-2.42-25.74 1.33-2.81 1.69-4 4.67-7.3 6.04q-8.31 3.46-11.96 11.98-.84 1.96-1.38 9.04-.23 3.05 1 18.45.25 3.2 1.57 5.67 8.83 16.59 27.23 20.77 2.99.68 6.2.03c12.04-2.43 22.35-7.27 29.31-17.73q2.24-3.38 2.83-7.38 1.99-13.45-5.05-25.32a1 1 0 0 1 .25-1.3q9.65-7.45 11.88-8.4 2.87-1.23 11.57-2.01c4.62-.41 8.79-2.46 13.39-3.44 2.72-.58 4.65-1.64 7.01-2.83a1.05 1.05 0 0 0 .48-.51q1.39-3.3 5.29-2.46a1.02 1.01-7.7 0 1 .68.51q2.81 5.27.37 11.04a1.01 1.01 0 0 1-.42.48c-3.08 1.78-5.82 3.69-9.52 3.95-5.55.4-14.17-.25-19.09 2.13-2.71 1.32-14.25 8.54-8.8 11.33a.98.96 52.2 0 0 .67.09q3.76-.83 6.81-3.16a.99.98-58.8 0 1 .76-.19l1.85.29a1 .99 89.1 0 1 .82.8q1.36 7.25-5 10.7a1.03 1-1.5 0 0-.41.42q-2.24 4.27-7.36 10.2-2.53 2.93-1.68 7.24a1.01 1.01 0 0 0 .62.74q3.74 1.44 5.83-1.75a1.01.97-78.3 0 1 .63-.43l1.54-.34a.99.99 0 0 1 1.2.89l.26 2.88a1.01 1-19.3 0 1-.45.92c-6.52 4.3 8.8 3.5 9.31 3.51a1.01.99 24.8 0 0 .68-.24c3.21-2.8 6.79-4.95 9.67-7.9 4.65-4.76 16.41-19.86 21.26-10.92a1.01.98 37.6 0 1 .1.69c-.45 2.08-.49 3.96-1.76 5.75q-13.59 19.15-27.24 38.25c-9.07 12.69-17.42 25.79-25.96 38.8-5.02 7.65-7.65 16.41-10.09 25.05-1.71 6.03-1.88 12.3-2.43 18.63q-.22 2.56-1.43 4.76c-4.17 7.58-9.31 18.47-10.37 27.06-3.32 26.83-8.2 53.55-12.79 80.19q-.52 3.03-2.02 5.87c-4.28 8.09-6.36 15.16-9.44 22.89-1.83 4.59-5.75 6.87-8.09 11.15q-3.37 6.14-7.96 11.46-1.07 1.24-.54 3.68l-51.44.03a1.01 1-90 0 1-1-1.01l1.21-478.97a1 1 0 0 1 1-1l156.23.03Z"></path><path fill="#0f1954" d="M592.04 15.5c8.49-.02 17.08-.4 25.23.94q32.46 5.33 60.49 22.24c25.35 15.3 39.95 39.03 44.24 68.83 2.56 17.75 4.94 37.07.88 53.77-3.62 14.91-10.74 25.62-20.87 38.51q-10.63 13.52-22.96 25.57a1 1 0 0 0 .02 1.45q13.74 12.72 27.41 25.49 7.12 6.65 11.5 12.37c17.73 23.19 28.71 49.18 28.01 78.81-1.04 44.43-20.09 99.71-58.51 125.5-26.66 17.89-66.76 27.58-98.79 27.44q-50.22-.24-100.44.04l3.83-1.43q.25-.09.42-.29l6.12-7.38a1.07 1.03 66.9 0 0 .23-.6l1.83-46.47a1 .93 65 0 1 .17-.52c1.5-2.23 3.06-3.79 3.17-6.65q.17-4.66.26-9.3a.96.96 0 0 1 .14-.5c4.87-7.96 11.6-16.01 15.33-24.44q3.15-7.12 7.73-13.42c2.4-3.31 2.74-9.43 3.77-13.48.92-3.63 1.01-6.85 1.18-10.47.14-3.05 2.52-4.95 2.3-7.68q-.45-5.48-.77-10.94a1.02 1 66.3 0 1 .28-.75q7.05-7.28 12.99-15.45c3.01-4.14 4.35-9.3 7.54-13.78a1.02.98 5.9 0 1 .45-.35c2.57-.99 5.07-1.3 7.24-3.09 3.24-2.68 6.42-5.26 9.36-8.32 7.47-7.79 13.65-13.59 17.33-19.5a1.05 1.02 8.9 0 1 .62-.44q7.11-1.74 8.12 5.38c1.97 13.98-3.9 31.35-4.83 43.98q-.64 8.69 1.1 24.29c.77 6.95 13.62 18.58 18.44 23.95 1.79 1.98 3.77 3.56 5.79 5.34 3.72 3.26 5.33 12.75 4.11 17.34-2.42 9.1-3.83 18.44-5.86 27.64-1.55 7-1.2 13.57-1.13 20.59a1 .94-64.4 0 0 .18.57l4.1 5.79a.99.97-16.9 0 0 .81.42h6.88a1.02.99-67.9 0 0 .73-.32c9.79-10.51 14.48-16.32 20.05-28.11 2.8-5.93 3.59-11.92 4.69-18.34q.41-2.39 5.76-12.81c2.98-5.8-1.02-15.84-4.68-20.61q-4.94-6.44-4.77-15.03c.15-7.54-10.26-13.16-13.12-19.77a1.02 1.01 49.6 0 1 .07-.92c2.33-3.8 5.13-7.15 6.58-11.46q3.19-9.49 8.88-17.69c2.49-3.59 3.01-7.67 4.51-10.5q2.28-4.29 9.8-11.05a.96.93 78.7 0 0 .29-.45q1.72-5.66 2.64-11.45c.86-5.34 4.06-7.97 5.06-12.66 3.79-17.78 1.96-39.42-1.29-56.52-2.05-10.81-3.28-17.54-10.27-24.46a1 .99-68.5 0 1-.29-.68Q661.07 149.66 652 117q-2.49-8.96-5.92-14.94c-6.58-11.45-17.15-22.43-29.35-28.04q-1.36-.62-7.67-2.48-6.79-2-12.38-6.57a1.01 1 27.8 0 1-.33-1.05q1.33-4.52 5.98-6.58a.98.96-3.6 0 0 .55-.61c2.63-8.46 3.03-23-2.98-30.65q-4.09-5.19-7.86-10.58Zm397.79 7.3-4.48-.08a.99.99 0 0 1-.98-1.01l.02-1.54a1 1 0 0 1 1.01-.99l17 .14a1 1 0 0 1 .98.87c.51 3.96-4 2.4-5.9 2.55a1.01 1-2.2 0 0-.92.99l-.17 17.28a1 1 0 0 1-1 .99h-3.66a1.01 1 90 0 1-1-1.01l.08-17.18a1.01 1-89.4 0 0-.98-1.01Zm19.54 6.21q.15 6.06-.77 12.07a1 .99 3.1 0 1-.95.85l-1.75.07a1 1 0 0 1-1.04-1.1l2.1-20.48a1 .99-89.6 0 1 .9-.9l3.89-.34a1.01 1-15.3 0 1 .99.56l5.59 11.43q.89 1.81 1.8.01l5.73-11.41a1.02 1.02 0 0 1 .95-.55l3.56.21a1 .99 88.6 0 1 .93.89l2.2 20.21a1 .99 83.3 0 1-.86 1.1l-3.63.46a1 1 0 0 1-1.12-.9l-.94-10.28q-.32-3.44-1.89-.37-2.28 4.47-4.6 9.87c-1.35 3.17-3.59 1.61-4.63-.56-1.98-4.12-5.27-11.51-6.05-11.35a.51.5 84 0 0-.41.51ZM35.03 554.27l-.04 14.49a1.01 1-1.2 0 1-.97 1l-8.98.31a1.01 1-.8 0 1-1.04-1v-42.46a1 1 0 0 1 .95-1c10.98-.58 30.49-3.2 29.51 14.14-.62 10.96-9.34 12.94-18.5 13.52a1 .99 88.2 0 0-.93 1Zm8.05-13.17c1.15-4.7-1.71-11.04-7.36-9.36a1 .99 81.9 0 0-.71.96l-.02 12.71a1 .99 90 0 0 .99 1q5.78.04 7.1-5.31Zm19.43 28.21-.01-43.14a.73.73 0 0 1 .75-.73l9.61.26a.73.73 0 0 1 .71.74L73.4 544a.73.73 0 0 0 .73.74l15.47.01a.73.73 0 0 0 .73-.74l-.19-17.65a.73.73 0 0 1 .73-.74l9.65-.04a.73.73 0 0 1 .73.73v42.74a.73.73 0 0 1-.71.73l-9.6.29a.73.73 0 0 1-.76-.74l.1-17.95a.73.73 0 0 0-.74-.73l-15.32.14a.73.73 0 0 0-.72.73v17.62a.73.73 0 0 1-.72.73l-9.53.17a.73.73 0 0 1-.74-.73Z"></path><rect width="11.24" height="44.38" x="108" y="525.54" fill="#0f1954" rx="1.11"></rect><path fill="#0f1954" d="M156.69 564.89q.23 2.13-.51 4.15a1.01.99 9.2 0 1-.93.66l-24.49.17a1.01 1 0 0 1-1.01-1v-42.41a1 1 0 0 1 1.02-1l9 .2a1 1 0 0 1 .98 1V563a1 1 0 0 0 1 1h13.94a1.01 1-3.2 0 1 1 .89Z"></path><rect width="11.02" height="44.34" x="163.25" y="525.57" fill="#0f1954" rx=".7"></rect><path fill="#0f1954" d="m193.49 554.31.04 14.56a1 1 0 0 1-.99 1l-9 .15a1 .99 89.4 0 1-1.01-1l-.04-42.49a1 .99 89.7 0 1 .98-1q7.99-.11 15.96.04c16.5.3 18.25 20.17 5.01 26.14-3.87 1.74-6.69.82-10.18 1.63a1 1 0 0 0-.77.97Zm7.45-20.1q-2.75-2.82-6.42-2.75a1 1 0 0 0-.98.99l-.14 13.17a1.01 1-5 0 0 1.19.99q9.57-1.77 6.59-11.98-.07-.24-.24-.42Zm28.55 20.15.04 14.51a1 1 0 0 1-.99 1l-8.99.15a1 1 0 0 1-1.02-1l-.05-42.5a1 1 0 0 1 .99-1q6.95-.07 14.03-.09c5.96-.02 13.33 1.89 14.85 8.54 2.46 10.77-3.27 18.82-14.49 18.97q-1.83.03-3.6.44a1.01 1.01 0 0 0-.77.98Zm7.66-19.91q-2.88-3.1-6.63-2.98a1 1 0 0 0-.97.99l-.15 13.13a1 .99 85.4 0 0 1.16.99q9.33-1.54 6.83-11.69-.07-.25-.24-.44Z"></path><rect width="11.02" height="44.26" x="257" y="525.57" fill="#0f1954" rx=".6"></rect><path fill="#0f1954" d="M283.5 544.09v24.84a1 1 0 0 1-1 1h-5.23a1 1 0 0 1-1-1l-.07-42.4a1 .99 86 0 1 .85-.99c2.73-.41 4.95-.31 7.11 1.78q12.72 12.34 23.79 24.31 1.76 1.9 1.73-.69l-.25-24.24a1 1 0 0 1 .96-1.01l5.58-.22a1 1 0 0 1 1.04 1l-.03 42.6a1.01 1 .6 0 1-1.03 1l-4.97-.14a.99.97 68.5 0 1-.68-.3l-25.43-26.1q-1.37-1.41-1.37.56Zm54.89 19.88 15.56.04a.89.89 0 0 1 .88.97l-.37 3.93a.89.89 0 0 1-.88.81l-26.13.09a.89.89 0 0 1-.89-.89l-.05-42.56a.89.89 0 0 1 .89-.89l25.05.08a.89.89 0 0 1 .88.97l-.37 4.14a.89.89 0 0 1-.88.81l-13.62.08a.89.89 0 0 0-.89.89l-.08 11.35a.89.89 0 0 0 .87.9l12.99.22a.89.89 0 0 1 .87.95l-.27 4.06a.89.89 0 0 1-.89.83h-12.67a.89.89 0 0 0-.89.89v11.44a.89.89 0 0 0 .89.89Zm62.49-18.19q4.8 3.09 5.52 8.26c2.77 19.71-19.13 15.6-30.62 15.81a1 1 0 0 1-1.02-1l-.03-42.32a1 .99 89.7 0 1 .98-1c6.76-.1 15.48-.85 22.02 1.26 7.06 2.28 9.25 9.98 4.41 15.61q-.81.94-1.53 1.96a1 1 0 0 0 .27 1.42Zm-14.65-3.6c9.29 2 10.1-10.59.52-10.75a1.01 1.01 0 0 0-1.02.97l-.29 8.77a1 .99-83.1 0 0 .79 1.01Zm.03 21.46c5.28.98 8.94-.76 9.17-6.49q.33-8.16-8.7-8.87a1 1 0 0 0-1.08.98l-.21 13.38a1.01 1.01 0 0 0 .82 1Zm72.68-15.83c-7.52-4.64-5.87-15.95 1.1-19.94 5.58-3.2 14.34-2.77 20.95-1.65a1 1 0 0 1 .82 1.09l-.59 5.77a1 1 0 0 1-1.18.88c-4.75-.89-15.11-6.08-16.28 1.75q-.44 2.87 2.21 4.07c8.01 3.63 18.29 5.31 18.01 16.71-.36 15.01-19.83 14.93-29.42 11.45q-2.44-.88-1.77-3.17l1.18-4.04q.7-2.39 2.8-1.3c3.37 1.74 11.55 6.27 15 3.85 3.11-2.19 3.31-6.22.93-9.11a1.07 1.02 77.8 0 0-.46-.31q-7.66-2.57-13.3-6.05Zm42.03-5.81h.29a.41.4 20.9 0 0 .3-.13c7.1-7.64 12.06-18.98 24.75-15.84a1 .98 9.2 0 1 .76 1.04l-.25 3.26a1.01 1 86.6 0 1-.8.91c-5.86 1.17-11.4 6.78-15.09 11.19a1.01 1-39.2 0 0-.12 1.11c4.33 8.14 9.4 17.94 18.24 20.97a.98.96-86.1 0 1 .65.76q.68 3.56-3.2 4.41c-12.95 2.83-17.27-6.18-22.47-15.96-4.46-8.38-3.15 14.19-3.11 15.08a1 .99-2 0 1-.98 1.04l-8.99.19a.99.99 0 0 1-1.02-1l.1-42.58a1 .99-89.2 0 1 1.02-1l8.88.22a1.01 1 1.2 0 1 .98 1.01l-.21 15.05a.27.27 0 0 0 .27.27Zm44.26 21.98 14.93.03a1 1 0 0 1 .99.88q.25 2.03-.16 4.06a1 1 0 0 1-.98.8H534a1 1 0 0 1-1-1v-42.2a1 .99-89.7 0 1 1-1l24.76.14a1 .99-87.6 0 1 .99 1.08l-.31 3.82a1 .99-87.2 0 1-1 .91l-13.4-.01a1 1 0 0 0-1 1.02l.15 11.2a.99.99 0 0 0 .97.98l12.33.33a1 .99-89.4 0 1 .97 1v3.62a1 1 0 0 1-.99 1l-12.2.13a1.01 1-90 0 0-.99 1l-.04 11.2a1 1 0 0 0 .99 1.01Zm29.2-32.5-10.99.07a.85.85 0 0 1-.86-.87l.1-4.13a.85.85 0 0 1 .84-.82l35.16-.21a.85.85 0 0 1 .84 1l-.8 4.29a.85.85 0 0 1-.84.69h-10.53a.85.85 0 0 0-.85.85v36.53a.85.85 0 0 1-.82.85l-9.57.35a.85.85 0 0 1-.88-.85l.06-36.9a.85.85 0 0 0-.86-.85ZM606 569.81a1 1 0 0 1-1-1v-42.3a1 1 0 0 1 .99-1q7.06-.03 14.26 0c5.6.01 13.34 1.48 14.57 7.91q1.27 6.68-3.86 10.72a1 1 0 0 0 .15 1.67c8.3 4.43 7.86 18.37-.47 22.44-5.71 2.79-17.99 1.56-24.64 1.56Zm15.56-37.12q-1.43-1.12-4.34-1.23a1 1 0 0 0-1.04.99l-.05 8.79a1 .99 5.5 0 0 .82.99c6.2 1.09 9.92-5.39 4.61-9.54Zm-4.42 31.08c12.29 1.36 11.85-14.69.18-15.45a1 1 0 0 0-1.07 1v13.46a1 1 0 0 0 .89.99Zm23.35 6.27q-2.44.13-1.39-2.46 8.03-19.82 15.85-39.36.74-1.83 3.52-1.49a1.06.99 32.9 0 0 .56-.1q3.28-1.61 6.88-.69a1 .99 87.1 0 1 .69.63l15 41.82a1 1 0 0 1-.92 1.34l-9.82.22a1 .99-10.4 0 1-.97-.66l-4.69-13.26a1 1 0 0 0-.96-.67l-11.78.2a.99.99 0 0 0-.92.66l-4.65 12.86a.99.98-81.6 0 1-.88.66l-5.52.3Zm13.68-21.35a.45.45 0 0 0 .4.62l7.63.32a.45.45 0 0 0 .45-.58l-3.36-11.04a.45.45 0 0 0-.85-.03l-4.27 10.71Zm30.08 20.23v-42.58a.89.89 0 0 1 .91-.89l9.29.22a.89.89 0 0 1 .87.89l-.05 36.55a.89.89 0 0 0 .89.89h14.48a.89.89 0 0 1 .88 1.02l-.56 3.94a.89.89 0 0 1-.88.76l-24.94.09a.89.89 0 0 1-.89-.89Zm60.7-3.88-.33 3.83a.96.96 0 0 1-.95.88h-24.71a.96.96 0 0 1-.96-.96V526.4a.96.96 0 0 1 .99-.96l9.09.24a.96.96 0 0 1 .93.96l-.02 36.4a.96.96 0 0 0 .96.96h14.04a.96.96 0 0 1 .96 1.04Zm59.65 3.54-.49.77a1.02 1.01 15.4 0 1-.84.47l-10.12.08a1 .99-9.6 0 1-.96-.68l-4.38-13.17a.99.99 0 0 0-.97-.68l-11.99.22a.99.99 0 0 0-.92.66L769.39 569a1.01 1 7.6 0 1-.87.66l-5.29.38q-2.7.19-1.66-2.4l16.15-40.07a.99.99 0 0 1 .89-.62c3.22-.14 6.23-1.92 9.79-.97a1.03 1.01-2.1 0 1 .69.63c1.25 3.51 14.03 39.49 14.2 39.53a.33.33 0 0 0 .4-.27l.97-6.04a1 1 0 0 1 1.38-.77l13.13 5.63a1.01.99 42.5 0 0 .84-.03q7.7-3.85 3.58-10.12a1.08 1.06 83.6 0 0-.47-.38c-5.3-2.13-13.14-4.65-16.39-9.01-4.01-5.37-2.43-12.61 2.82-16.51 5.78-4.3 15.38-3.63 22.03-2.18a.99.99 0 0 1 .78 1.1l-.72 5.73a1 1 0 0 1-1.25.84q-4.94-1.32-9.88-2.72c-4.19-1.19-8 3.57-5.49 6.95 2.34 3.15 12.89 6.2 14.67 7.44 6.54 4.54 6.53 14.62.6 19.76q-4.73 4.09-11.3 4.46-6.82.38-13.22-1.85a.99.98-64.2 0 0-1.17.41Zm-27.89-20.03a.6.6 0 0 0 .54.82l7.15.26a.6.6 0 0 0 .6-.77l-3.2-10.53a.6.6 0 0 0-1.13-.04l-3.96 10.26Zm65.56 10.37c4.56 2.56 17.5 10.05 18.73-.41q.4-3.34-2.71-4.65c-4.66-1.97-11.96-4.29-15.12-8.21-4.97-6.15-2.67-14.3 3.95-17.99 5.69-3.18 14.1-2.32 20.38-1.45a1.01 1-83.2 0 1 .86 1.1l-.62 5.89a1 1 0 0 1-1.22.87q-4.97-1.14-9.77-2.57c-6.13-1.82-9.6 6.15-2.23 9.19 7.39 3.04 14.61 5.07 15.92 12.55 3.15 17.83-19.92 19.21-31 13.79a.99.98 21.4 0 1-.52-1.18l1.9-6.35a1 1 0 0 1 1.45-.58Zm76.855-7.537a18.52 18.52 0 0 1-18.65 18.39l-6.819-.047a18.52 18.52 0 0 1-18.39-18.65l.05-7.099a18.52 18.52 0 0 1 18.648-18.39l6.82.047a18.52 18.52 0 0 1 18.39 18.65l-.05 7.099ZM889.4 560.57q8.02 6.36 16.16.91a1.02.98-8 0 0 .4-.51c2.48-7.5 3.92-21.35-2.71-27.04-4.88-4.18-14.69-3.12-15.94 4.29q-1.99 11.83 1.78 21.91a1.02.96 11.6 0 0 .31.44Zm52.11 9.33c-12.88-.79-16.97-14.04-15.79-24.67 2.12-19.12 17.49-21.12 33.33-19.14q2.79.35 2.13 3.07l-1.03 4.3a1.01 1-75.9 0 1-1.23.74c-7.42-1.98-19.62-6.78-21.36 5.28q-1.19 8.26.67 16.16c2.49 10.54 11.04 8.89 18.97 6.6 3.71-1.08 6.3-.36 3.55 4.71a1.04 1.03 4.7 0 1-.56.47q-9.21 3.07-18.68 2.48Z"></path><rect width="11" height="44.3" x="967.75" y="525.57" fill="#0f1954" rx=".75"></rect><path fill="#0f1954" d="M1047.5 532.24v36.73a.74.74 0 0 1-.71.74l-9.59.34a.74.74 0 0 1-.76-.73l-.16-37.08a.74.74 0 0 0-.74-.74h-11.3a.74.74 0 0 1-.74-.76l.09-4.48a.74.74 0 0 1 .74-.72h35.26a.74.74 0 0 1 .74.83l-.56 4.48a.74.74 0 0 1-.73.65h-10.8a.74.74 0 0 0-.74.74Z"></path><rect width="11" height="44.36" x="1063.75" y="525.56" fill="#0f1954" rx=".78"></rect><path fill="#0f1954" d="M1128.052 551.46a18.49 18.49 0 0 1-18.683 18.295l-6.98-.073A18.49 18.49 0 0 1 1084.094 551l.074-7.1a18.49 18.49 0 0 1 18.683-18.295l6.98.073a18.49 18.49 0 0 1 18.295 18.682l-.074 7.1Zm-27.362 10.6q6.47 4.36 13.6-.45a1 .97-7.4 0 0 .38-.48q3.39-9.19 1.68-18.95c-1.49-8.52-8.88-13.74-16.79-9.05-3.59 2.13-3.54 5.31-3.74 9.13-.31 6.06-.97 15.87 4.87 19.8Zm42.23 7.65-6.77.41a.38.38 0 0 1-.4-.38v-43.92a.38.38 0 0 1 .39-.38l5.97.2a.38.38 0 0 1 .26.11l26.12 26.67a.38.38 0 0 0 .65-.27l-.2-26.04a.38.38 0 0 1 .37-.39l6.8-.29a.38.38 0 0 1 .4.38l-.03 43.83a.38.38 0 0 1-.38.38l-5.67-.02a.38.38 0 0 1-.27-.11l-26.32-27.02a.38.38 0 0 0-.66.27l.1 26.19a.38.38 0 0 1-.36.38Zm-734.61-1.45 16.4-40.53a1.23 1.23 0 0 1 .92-.75l8.92-1.63a1.23 1.23 0 0 1 1.38.79L451 568.11a1.23 1.23 0 0 1-1.13 1.65l-9.44.2a1.23 1.23 0 0 1-1.19-.83l-4.41-12.94a1.23 1.23 0 0 0-1.19-.83l-11.6.21a1.23 1.23 0 0 0-1.14.82l-4.44 12.48a1.23 1.23 0 0 1-1.11.82l-5.85.26a1.23 1.23 0 0 1-1.19-1.69Zm15.31-19.47a.4.4 0 0 0 .35.55l7.75.33a.4.4 0 0 0 .39-.52l-3.41-11.11a.4.4 0 0 0-.75-.04l-4.33 10.79Zm586.43 6.56-11.82.2a1.01 1 8.9 0 0-.92.66l-4.69 12.83a1 .98-80.8 0 1-.9.66l-6.26.22a1 .99-80.1 0 1-.96-1.37q7.73-19.19 15.36-38.11c.93-2.31 1.29-3.94 4.36-3.71q.24.02.46-.08 3.36-1.42 6.93-.75a1.03 1.02 85.2 0 1 .76.65l14.98 41.8a1.01 1 79.4 0 1-.91 1.34l-9.85.28a.99.98 79.3 0 1-.97-.67l-4.61-13.28a1 1 0 0 0-.96-.67Zm-10.25-6.51a.35.35 0 0 0 .31.48l7.97.34a.35.35 0 0 0 .35-.46l-3.52-11.29a.35.35 0 0 0-.66-.03l-4.45 10.96Z"></path></svg>